<svg width="402" height="102" viewBox="0 0 402 102" fill="none" xmlns="http://www.w3.org/2000/svg">
<path d="M68.3 67.4C66.1533 67.4 64.2167 67.19 62.49 66.77C60.7633 66.35 59.2 65.8133 57.8 65.16C56.4467 64.46 55.2567 63.6667 54.23 62.78C53.2033 61.8933 52.3167 60.9833 51.57 60.05C49.7967 57.9033 48.49 55.4533 47.65 52.7L63.05 49.55C63.33 50.1567 63.7033 50.6933 64.17 51.16C64.5433 51.5333 65.0333 51.8833 65.64 52.21C66.2933 52.5367 67.0633 52.7 67.95 52.7C71.45 52.7 73.2 50.95 73.2 47.45V17H90.7V47.1C90.7 50.18 90.21 52.98 89.23 55.5C88.25 57.9733 86.8033 60.0967 84.89 61.87C82.9767 63.6433 80.62 65.02 77.82 66C75.0667 66.9333 71.8933 67.4 68.3 67.4ZM111.003 67.05C106.943 67.05 103.699 65.79 101.273 63.27C98.8927 60.7033 97.7027 56.9467 97.7027 52V28.9H113.803V49.2C113.803 50.6933 114.153 51.8367 114.853 52.63C115.599 53.3767 116.533 53.75 117.653 53.75C119.053 53.75 120.219 53.26 121.153 52.28C122.086 51.3 122.553 49.9233 122.553 48.15V28.9H138.653V66H122.553V60.75H121.853C121.153 61.9633 120.266 63.0133 119.193 63.9C118.259 64.6933 117.116 65.4167 115.763 66.07C114.409 66.7233 112.823 67.05 111.003 67.05ZM118.353 11.4H133.053V11.75L122.903 22.25H113.453L118.353 11.4ZM144.939 28.9H161.039V33.8H161.739C162.392 32.68 163.232 31.7 164.259 30.86C165.146 30.1133 166.266 29.4367 167.619 28.83C168.972 28.1767 170.629 27.85 172.589 27.85C174.689 27.85 176.672 28.2933 178.539 29.18C180.406 30.02 182.039 31.28 183.439 32.96C184.839 34.5933 185.936 36.6467 186.729 39.12C187.569 41.5467 187.989 44.3233 187.989 47.45C187.989 50.6233 187.569 53.4233 186.729 55.85C185.936 58.2767 184.839 60.33 183.439 62.01C182.039 63.6433 180.406 64.9033 178.539 65.79C176.672 66.63 174.689 67.05 172.589 67.05C170.629 67.05 168.972 66.7467 167.619 66.14C166.266 65.5333 165.146 64.8567 164.259 64.11C163.232 63.27 162.392 62.2667 161.739 61.1H161.039V79.3H144.939V28.9ZM166.219 54.1C167.666 54.1 168.902 53.5167 169.929 52.35C171.002 51.1833 171.539 49.55 171.539 47.45C171.539 45.35 171.002 43.7167 169.929 42.55C168.902 41.3833 167.666 40.8 166.219 40.8C164.866 40.8 163.652 41.3833 162.579 42.55C161.552 43.7167 161.039 45.35 161.039 47.45C161.039 49.55 161.552 51.1833 162.579 52.35C163.652 53.5167 164.866 54.1 166.219 54.1ZM193.269 28.9H209.369V66H193.269V28.9ZM201.319 26.1C198.659 26.1 196.582 25.4 195.089 24C193.642 22.6 192.919 20.85 192.919 18.75C192.919 16.65 193.642 14.9 195.089 13.5C196.582 12.1 198.659 11.4 201.319 11.4C203.979 11.4 206.032 12.1 207.479 13.5C208.972 14.9 209.719 16.65 209.719 18.75C209.719 20.85 208.972 22.6 207.479 24C206.032 25.4 203.979 26.1 201.319 26.1ZM218.141 39.75H213.241V28.9H218.141V21.2H234.241V28.9H242.641V39.75H234.241V55.15H243.341V66H218.141V39.75ZM268.522 67.05C265.349 67.05 262.455 66.5367 259.842 65.51C257.229 64.4833 254.989 63.0833 253.122 61.31C251.255 59.5367 249.785 57.46 248.712 55.08C247.685 52.7 247.172 50.1567 247.172 47.45C247.172 44.7433 247.685 42.2 248.712 39.82C249.785 37.44 251.255 35.3633 253.122 33.59C254.989 31.8167 257.229 30.4167 259.842 29.39C262.455 28.3633 265.349 27.85 268.522 27.85C271.649 27.85 274.519 28.3633 277.132 29.39C279.792 30.4167 282.055 31.8167 283.922 33.59C285.789 35.3633 287.235 37.44 288.262 39.82C289.335 42.2 289.872 44.7433 289.872 47.45V48.5H263.622C263.622 51.16 264.089 53.05 265.022 54.17C265.955 55.29 267.122 55.85 268.522 55.85C269.409 55.85 270.132 55.6867 270.692 55.36C271.252 55.0333 271.719 54.6833 272.092 54.31C272.512 53.8433 272.839 53.3067 273.072 52.7H289.522C288.682 55.4067 287.352 57.81 285.532 59.91C284.739 60.7967 283.805 61.6833 282.732 62.57C281.705 63.41 280.492 64.1567 279.092 64.81C277.739 65.4633 276.175 66 274.402 66.42C272.629 66.84 270.669 67.05 268.522 67.05ZM273.072 43.95C272.979 43.0633 272.745 42.2467 272.372 41.5C272.045 40.8933 271.579 40.3333 270.972 39.82C270.412 39.3067 269.595 39.05 268.522 39.05C267.449 39.05 266.609 39.3067 266.002 39.82C265.442 40.3333 264.999 40.8933 264.672 41.5C264.299 42.2467 264.065 43.0633 263.972 43.95H273.072ZM294.783 28.9H310.183V34.5H310.883C311.303 33.3333 311.909 32.2833 312.703 31.35C313.356 30.5567 314.219 29.8333 315.293 29.18C316.366 28.5267 317.696 28.2 319.283 28.2H322.433V43.6H315.713C313.986 43.6 312.749 43.9733 312.003 44.72C311.256 45.42 310.883 46.5633 310.883 48.15V66H294.783V28.9Z" fill="white"/>
<path d="M4 0V78" stroke="#CC0BF9" stroke-opacity="0.96" stroke-width="8"/>
<path d="M24 0V78" stroke="#CC0BF9" stroke-opacity="0.96" stroke-width="8"/>
</svg>
