<svg width="649" height="131" viewBox="0 0 649 131" fill="none" xmlns="http://www.w3.org/2000/svg">
<path d="M51.2 17H74.65L81.3 39.75H83.05L89.7 17H112.8V66H95.3V43.67L96.35 37.3H95.65L90.05 54.8H73.95L68.35 37.3H67.65L68.7 43.67V66H51.2V17ZM140.1 67.05C136.927 67.05 134.033 66.5367 131.42 65.51C128.807 64.4833 126.567 63.0833 124.7 61.31C122.833 59.5367 121.363 57.46 120.29 55.08C119.263 52.7 118.75 50.1567 118.75 47.45C118.75 44.7433 119.263 42.2 120.29 39.82C121.363 37.44 122.833 35.3633 124.7 33.59C126.567 31.8167 128.807 30.4167 131.42 29.39C134.033 28.3633 136.927 27.85 140.1 27.85C143.227 27.85 146.097 28.3633 148.71 29.39C151.37 30.4167 153.633 31.8167 155.5 33.59C157.367 35.3633 158.813 37.44 159.84 39.82C160.913 42.2 161.45 44.7433 161.45 47.45V48.5H135.2C135.2 51.16 135.667 53.05 136.6 54.17C137.533 55.29 138.7 55.85 140.1 55.85C140.987 55.85 141.71 55.6867 142.27 55.36C142.83 55.0333 143.297 54.6833 143.67 54.31C144.09 53.8433 144.417 53.3067 144.65 52.7H161.1C160.26 55.4067 158.93 57.81 157.11 59.91C156.317 60.7967 155.383 61.6833 154.31 62.57C153.283 63.41 152.07 64.1567 150.67 64.81C149.317 65.4633 147.753 66 145.98 66.42C144.207 66.84 142.247 67.05 140.1 67.05ZM144.65 43.95C144.557 43.0633 144.323 42.2467 143.95 41.5C143.623 40.8933 143.157 40.3333 142.55 39.82C141.99 39.3067 141.173 39.05 140.1 39.05C139.027 39.05 138.187 39.3067 137.58 39.82C137.02 40.3333 136.577 40.8933 136.25 41.5C135.877 42.2467 135.643 43.0633 135.55 43.95H144.65ZM184.561 67.05C182.228 67.05 180.151 66.8633 178.331 66.49C176.558 66.1167 174.971 65.6267 173.571 65.02C172.218 64.3667 171.051 63.6433 170.071 62.85C169.091 62.0567 168.274 61.24 167.621 60.4C166.081 58.4867 165.078 56.27 164.611 53.75H179.661C179.754 54.2633 179.988 54.73 180.361 55.15C180.688 55.5233 181.131 55.85 181.691 56.13C182.298 56.41 183.138 56.55 184.211 56.55C185.424 56.55 186.241 56.41 186.661 56.13C187.128 55.85 187.361 55.5233 187.361 55.15C187.361 54.4967 186.824 54.0067 185.751 53.68C184.724 53.3067 183.418 52.9333 181.831 52.56C180.244 52.1867 178.518 51.7667 176.651 51.3C174.831 50.7867 173.128 50.0633 171.541 49.13C169.954 48.1967 168.624 46.9833 167.551 45.49C166.524 43.9967 166.011 42.0833 166.011 39.75C166.011 38.1633 166.361 36.67 167.061 35.27C167.761 33.8233 168.834 32.5633 170.281 31.49C171.774 30.37 173.641 29.4833 175.881 28.83C178.121 28.1767 180.781 27.85 183.861 27.85C186.054 27.85 187.991 28.0367 189.671 28.41C191.398 28.7833 192.914 29.2733 194.221 29.88C195.528 30.4867 196.648 31.1867 197.581 31.98C198.561 32.7733 199.378 33.5667 200.031 34.36C201.571 36.2267 202.598 38.3733 203.111 40.8H188.061C187.921 40.38 187.734 39.9833 187.501 39.61C187.268 39.2833 186.941 39.0033 186.521 38.77C186.148 38.49 185.611 38.35 184.911 38.35C184.024 38.35 183.394 38.49 183.021 38.77C182.648 39.05 182.461 39.3767 182.461 39.75C182.461 40.3567 182.974 40.8233 184.001 41.15C185.074 41.43 186.404 41.7567 187.991 42.13C189.578 42.4567 191.281 42.8767 193.101 43.39C194.968 43.8567 196.694 44.5567 198.281 45.49C199.868 46.3767 201.174 47.5667 202.201 49.06C203.274 50.5533 203.811 52.4667 203.811 54.8C203.811 56.3867 203.414 57.9267 202.621 59.42C201.874 60.8667 200.708 62.1733 199.121 63.34C197.581 64.46 195.598 65.3467 193.171 66C190.744 66.7 187.874 67.05 184.561 67.05ZM226.534 67.05C224.2 67.05 222.124 66.8633 220.304 66.49C218.53 66.1167 216.944 65.6267 215.544 65.02C214.19 64.3667 213.024 63.6433 212.044 62.85C211.064 62.0567 210.247 61.24 209.594 60.4C208.054 58.4867 207.05 56.27 206.584 53.75H221.634C221.727 54.2633 221.96 54.73 222.334 55.15C222.66 55.5233 223.104 55.85 223.664 56.13C224.27 56.41 225.11 56.55 226.184 56.55C227.397 56.55 228.214 56.41 228.634 56.13C229.1 55.85 229.334 55.5233 229.334 55.15C229.334 54.4967 228.797 54.0067 227.724 53.68C226.697 53.3067 225.39 52.9333 223.804 52.56C222.217 52.1867 220.49 51.7667 218.624 51.3C216.804 50.7867 215.1 50.0633 213.514 49.13C211.927 48.1967 210.597 46.9833 209.524 45.49C208.497 43.9967 207.984 42.0833 207.984 39.75C207.984 38.1633 208.334 36.67 209.034 35.27C209.734 33.8233 210.807 32.5633 212.254 31.49C213.747 30.37 215.614 29.4833 217.854 28.83C220.094 28.1767 222.754 27.85 225.834 27.85C228.027 27.85 229.964 28.0367 231.644 28.41C233.37 28.7833 234.887 29.2733 236.194 29.88C237.5 30.4867 238.62 31.1867 239.554 31.98C240.534 32.7733 241.35 33.5667 242.004 34.36C243.544 36.2267 244.57 38.3733 245.084 40.8H230.034C229.894 40.38 229.707 39.9833 229.474 39.61C229.24 39.2833 228.914 39.0033 228.494 38.77C228.12 38.49 227.584 38.35 226.884 38.35C225.997 38.35 225.367 38.49 224.994 38.77C224.62 39.05 224.434 39.3767 224.434 39.75C224.434 40.3567 224.947 40.8233 225.974 41.15C227.047 41.43 228.377 41.7567 229.964 42.13C231.55 42.4567 233.254 42.8767 235.074 43.39C236.94 43.8567 238.667 44.5567 240.254 45.49C241.84 46.3767 243.147 47.5667 244.174 49.06C245.247 50.5533 245.784 52.4667 245.784 54.8C245.784 56.3867 245.387 57.9267 244.594 59.42C243.847 60.8667 242.68 62.1733 241.094 63.34C239.554 64.46 237.57 65.3467 235.144 66C232.717 66.7 229.847 67.05 226.534 67.05ZM250.306 28.9H266.406V66H250.306V28.9ZM258.356 26.1C255.696 26.1 253.62 25.4 252.126 24C250.68 22.6 249.956 20.85 249.956 18.75C249.956 16.65 250.68 14.9 252.126 13.5C253.62 12.1 255.696 11.4 258.356 11.4C261.016 11.4 263.07 12.1 264.516 13.5C266.01 14.9 266.756 16.65 266.756 18.75C266.756 20.85 266.01 22.6 264.516 24C263.07 25.4 261.016 26.1 258.356 26.1ZM292.678 67.05C289.505 67.05 286.611 66.5367 283.998 65.51C281.385 64.4833 279.145 63.0833 277.278 61.31C275.411 59.5367 273.941 57.46 272.868 55.08C271.841 52.7 271.328 50.1567 271.328 47.45C271.328 44.7433 271.841 42.2 272.868 39.82C273.941 37.44 275.411 35.3633 277.278 33.59C279.145 31.8167 281.385 30.4167 283.998 29.39C286.611 28.3633 289.505 27.85 292.678 27.85C295.805 27.85 298.675 28.3633 301.288 29.39C303.948 30.4167 306.211 31.8167 308.078 33.59C309.945 35.3633 311.391 37.44 312.418 39.82C313.491 42.2 314.028 44.7433 314.028 47.45V48.5H287.778C287.778 51.16 288.245 53.05 289.178 54.17C290.111 55.29 291.278 55.85 292.678 55.85C293.565 55.85 294.288 55.6867 294.848 55.36C295.408 55.0333 295.875 54.6833 296.248 54.31C296.668 53.8433 296.995 53.3067 297.228 52.7H313.678C312.838 55.4067 311.508 57.81 309.688 59.91C308.895 60.7967 307.961 61.6833 306.888 62.57C305.861 63.41 304.648 64.1567 303.248 64.81C301.895 65.4633 300.331 66 298.558 66.42C296.785 66.84 294.825 67.05 292.678 67.05ZM297.228 43.95C297.135 43.0633 296.901 42.2467 296.528 41.5C296.201 40.8933 295.735 40.3333 295.128 39.82C294.568 39.3067 293.751 39.05 292.678 39.05C291.605 39.05 290.765 39.3067 290.158 39.82C289.598 40.3333 289.155 40.8933 288.828 41.5C288.455 42.2467 288.221 43.0633 288.128 43.95H297.228ZM318.939 28.9H334.339V34.5H335.039C335.459 33.3333 336.066 32.2833 336.859 31.35C337.512 30.5567 338.376 29.8333 339.449 29.18C340.522 28.5267 341.852 28.2 343.439 28.2H346.589V43.6H339.869C338.142 43.6 336.906 43.9733 336.159 44.72C335.412 45.42 335.039 46.5633 335.039 48.15V66H318.939V28.9ZM391.772 67.4C389.065 67.4 386.639 67.1433 384.492 66.63C382.392 66.1167 380.525 65.4633 378.892 64.67C377.259 63.83 375.859 62.8733 374.692 61.8C373.525 60.7267 372.545 59.63 371.752 58.51C369.885 55.8967 368.625 52.91 367.972 49.55H385.122C385.402 50.3433 385.799 51.0433 386.312 51.65C386.779 52.1633 387.409 52.6533 388.202 53.12C388.995 53.54 390.069 53.75 391.422 53.75C393.382 53.75 394.805 53.3533 395.692 52.56C396.579 51.7667 397.022 50.7633 397.022 49.55C397.022 48.3367 396.579 47.3333 395.692 46.54C394.805 45.7467 393.382 45.35 391.422 45.35H380.222V36.25L390.022 31V30.3H370.772V17H411.722V29.95L398.772 35.55L398.002 35.9V36.67L398.072 36.6C400.779 36.6 403.182 36.95 405.282 37.65C407.382 38.35 409.132 39.3533 410.532 40.66C411.979 41.92 413.052 43.4367 413.752 45.21C414.499 46.9367 414.872 48.85 414.872 50.95C414.872 53.2367 414.405 55.3833 413.472 57.39C412.539 59.35 411.115 61.0767 409.202 62.57C407.335 64.0633 404.932 65.23 401.992 66.07C399.099 66.9567 395.692 67.4 391.772 67.4ZM419.069 51.65L435.869 42.9C438.296 41.64 440.232 40.59 441.679 39.75C443.126 38.91 444.222 38.1867 444.969 37.58C445.716 36.9267 446.182 36.3433 446.369 35.83C446.602 35.3167 446.719 34.7567 446.719 34.15C446.719 33.2167 446.299 32.3533 445.459 31.56C444.666 30.72 443.452 30.3 441.819 30.3C440.606 30.3 439.626 30.5333 438.879 31C438.132 31.42 437.572 31.8867 437.199 32.4C436.732 33.0067 436.406 33.7067 436.219 34.5H418.719C419.372 31 420.632 27.85 422.499 25.05C423.292 23.8833 424.272 22.74 425.439 21.62C426.606 20.4533 428.006 19.4267 429.639 18.54C431.272 17.6533 433.139 16.9533 435.239 16.44C437.386 15.88 439.812 15.6 442.519 15.6C446.112 15.6 449.286 16.0667 452.039 17C454.839 17.9333 457.196 19.1933 459.109 20.78C461.022 22.3667 462.469 24.1867 463.449 26.24C464.429 28.2933 464.919 30.4633 464.919 32.75C464.919 35.0367 464.476 37.0667 463.589 38.84C462.749 40.6133 461.676 42.1767 460.369 43.53C459.062 44.8833 457.662 46.0267 456.169 46.96C454.676 47.8933 453.276 48.6633 451.969 49.27C450.662 49.83 449.566 50.25 448.679 50.53C447.839 50.81 447.419 50.95 447.419 50.95L446.019 51.3L444.969 51.65V52.42L449.869 51.65H464.919V66H419.069V51.65Z" fill="white"/>
<path d="M4 0V78" stroke="#CC0BF9" stroke-opacity="0.96" stroke-width="8"/>
<path d="M23 0V78" stroke="#CC0BF9" stroke-opacity="0.96" stroke-width="8"/>
</svg>
