<svg width="401" height="102" viewBox="0 0 401 102" fill="none" xmlns="http://www.w3.org/2000/svg">
<path d="M51.2 17H70.8L84.17 40.1H84.8L83.75 33.1V17H101.25V66H81.65L68.35 42.9H67.65L68.7 49.55V66H51.2V17ZM128.547 67.05C125.374 67.05 122.481 66.5367 119.867 65.51C117.254 64.4833 115.014 63.0833 113.147 61.31C111.281 59.5367 109.811 57.46 108.737 55.08C107.711 52.7 107.197 50.1567 107.197 47.45C107.197 44.7433 107.711 42.2 108.737 39.82C109.811 37.44 111.281 35.3633 113.147 33.59C115.014 31.8167 117.254 30.4167 119.867 29.39C122.481 28.3633 125.374 27.85 128.547 27.85C131.674 27.85 134.544 28.3633 137.157 29.39C139.817 30.4167 142.081 31.8167 143.947 33.59C145.814 35.3633 147.261 37.44 148.287 39.82C149.361 42.2 149.897 44.7433 149.897 47.45V48.5H123.647C123.647 51.16 124.114 53.05 125.047 54.17C125.981 55.29 127.147 55.85 128.547 55.85C129.434 55.85 130.157 55.6867 130.717 55.36C131.277 55.0333 131.744 54.6833 132.117 54.31C132.537 53.8433 132.864 53.3067 133.097 52.7H149.547C148.707 55.4067 147.377 57.81 145.557 59.91C144.764 60.7967 143.831 61.6833 142.757 62.57C141.731 63.41 140.517 64.1567 139.117 64.81C137.764 65.4633 136.201 66 134.427 66.42C132.654 66.84 130.694 67.05 128.547 67.05ZM133.097 43.95C133.004 43.0633 132.771 42.2467 132.397 41.5C132.071 40.8933 131.604 40.3333 130.997 39.82C130.437 39.3067 129.621 39.05 128.547 39.05C127.474 39.05 126.634 39.3067 126.027 39.82C125.467 40.3333 125.024 40.8933 124.697 41.5C124.324 42.2467 124.091 43.0633 123.997 43.95H133.097ZM157.258 39.75H152.358V28.9H157.258V21.2H173.358V28.9H181.758V39.75H173.358V55.15H182.458V66H157.258V39.75ZM200.989 67.05C196.929 67.05 193.686 65.79 191.259 63.27C188.879 60.7033 187.689 56.9467 187.689 52V28.9H203.789V49.2C203.789 50.6933 204.139 51.8367 204.839 52.63C205.586 53.3767 206.519 53.75 207.639 53.75C209.039 53.75 210.206 53.26 211.139 52.28C212.072 51.3 212.539 49.9233 212.539 48.15V28.9H228.639V66H212.539V60.75H211.839C211.139 61.9633 210.252 63.0133 209.179 63.9C208.246 64.6933 207.102 65.4167 205.749 66.07C204.396 66.7233 202.809 67.05 200.989 67.05ZM234.925 28.9H251.025V34.15H251.725C252.425 32.9833 253.312 31.9333 254.385 31C255.319 30.2067 256.439 29.4833 257.745 28.83C259.099 28.1767 260.709 27.85 262.575 27.85C266.635 27.85 269.855 29.1333 272.235 31.7C274.662 34.22 275.875 37.9533 275.875 42.9V66H259.775V45.7C259.775 44.2067 259.402 43.0867 258.655 42.34C257.955 41.5467 257.045 41.15 255.925 41.15C254.525 41.15 253.359 41.64 252.425 42.62C251.492 43.6 251.025 44.9767 251.025 46.75V66H234.925V28.9ZM302.47 67.05C299.157 67.05 296.123 66.5367 293.37 65.51C290.663 64.4833 288.353 63.0833 286.44 61.31C284.527 59.5367 283.033 57.46 281.96 55.08C280.933 52.7 280.42 50.1567 280.42 47.45C280.42 44.7433 280.933 42.2 281.96 39.82C283.033 37.44 284.527 35.3633 286.44 33.59C288.353 31.8167 290.663 30.4167 293.37 29.39C296.123 28.3633 299.157 27.85 302.47 27.85C305.783 27.85 308.793 28.3633 311.5 29.39C314.207 30.4167 316.517 31.8167 318.43 33.59C320.39 35.3633 321.883 37.44 322.91 39.82C323.983 42.2 324.52 44.7433 324.52 47.45C324.52 50.1567 323.983 52.7 322.91 55.08C321.883 57.46 320.39 59.5367 318.43 61.31C316.517 63.0833 314.207 64.4833 311.5 65.51C308.793 66.5367 305.783 67.05 302.47 67.05ZM302.47 54.45C304.057 54.45 305.387 53.8667 306.46 52.7C307.533 51.4867 308.07 49.7367 308.07 47.45C308.07 45.1633 307.533 43.4367 306.46 42.27C305.387 41.0567 304.057 40.45 302.47 40.45C300.883 40.45 299.553 41.0567 298.48 42.27C297.407 43.4367 296.87 45.1633 296.87 47.45C296.87 49.7367 297.407 51.4867 298.48 52.7C299.553 53.8667 300.883 54.45 302.47 54.45Z" fill="white"/>
<path d="M4 0V78" stroke="#CC0BF9" stroke-opacity="0.96" stroke-width="8"/>
<path d="M23 0V78" stroke="#CC0BF9" stroke-opacity="0.96" stroke-width="8"/>
</svg>
