<svg width="388" height="102" viewBox="0 0 388 102" fill="none" xmlns="http://www.w3.org/2000/svg">
<path d="M51.2 17H74.65L81.3 39.75H83.05L89.7 17H112.8V66H95.3V43.67L96.35 37.3H95.65L90.05 54.8H73.95L68.35 37.3H67.65L68.7 43.67V66H51.2V17ZM140.1 67.05C136.927 67.05 134.033 66.5367 131.42 65.51C128.807 64.4833 126.567 63.0833 124.7 61.31C122.833 59.5367 121.363 57.46 120.29 55.08C119.263 52.7 118.75 50.1567 118.75 47.45C118.75 44.7433 119.263 42.2 120.29 39.82C121.363 37.44 122.833 35.3633 124.7 33.59C126.567 31.8167 128.807 30.4167 131.42 29.39C134.033 28.3633 136.927 27.85 140.1 27.85C143.227 27.85 146.097 28.3633 148.71 29.39C151.37 30.4167 153.633 31.8167 155.5 33.59C157.367 35.3633 158.813 37.44 159.84 39.82C160.913 42.2 161.45 44.7433 161.45 47.45V48.5H135.2C135.2 51.16 135.667 53.05 136.6 54.17C137.533 55.29 138.7 55.85 140.1 55.85C140.987 55.85 141.71 55.6867 142.27 55.36C142.83 55.0333 143.297 54.6833 143.67 54.31C144.09 53.8433 144.417 53.3067 144.65 52.7H161.1C160.26 55.4067 158.93 57.81 157.11 59.91C156.317 60.7967 155.383 61.6833 154.31 62.57C153.283 63.41 152.07 64.1567 150.67 64.81C149.317 65.4633 147.753 66 145.98 66.42C144.207 66.84 142.247 67.05 140.1 67.05ZM144.65 43.95C144.557 43.0633 144.323 42.2467 143.95 41.5C143.623 40.8933 143.157 40.3333 142.55 39.82C141.99 39.3067 141.173 39.05 140.1 39.05C139.027 39.05 138.187 39.3067 137.58 39.82C137.02 40.3333 136.577 40.8933 136.25 41.5C135.877 42.2467 135.643 43.0633 135.55 43.95H144.65ZM166.361 28.9H181.761V34.5H182.461C182.881 33.3333 183.488 32.2833 184.281 31.35C184.934 30.5567 185.798 29.8333 186.871 29.18C187.944 28.5267 189.274 28.2 190.861 28.2H194.011V43.6H187.291C185.564 43.6 184.328 43.9733 183.581 44.72C182.834 45.42 182.461 46.5633 182.461 48.15V66H166.361V28.9ZM217.825 67.05C214.651 67.05 211.758 66.5367 209.145 65.51C206.531 64.4833 204.291 63.0833 202.425 61.31C200.558 59.5367 199.088 57.46 198.015 55.08C196.988 52.7 196.475 50.1567 196.475 47.45C196.475 44.7433 196.988 42.2 198.015 39.82C199.088 37.44 200.558 35.3633 202.425 33.59C204.291 31.8167 206.531 30.4167 209.145 29.39C211.758 28.3633 214.651 27.85 217.825 27.85C220.251 27.85 222.421 28.0833 224.335 28.55C226.248 29.0167 227.928 29.6467 229.375 30.44C230.868 31.1867 232.128 32.0733 233.155 33.1C234.228 34.08 235.115 35.0833 235.815 36.11C237.495 38.5367 238.615 41.2667 239.175 44.3H222.725C222.538 43.6 222.211 42.97 221.745 42.41C221.371 41.8967 220.858 41.4533 220.205 41.08C219.551 40.66 218.758 40.45 217.825 40.45C216.425 40.45 215.258 41.01 214.325 42.13C213.391 43.2033 212.925 44.9767 212.925 47.45C212.925 49.9233 213.391 51.72 214.325 52.84C215.258 53.9133 216.425 54.45 217.825 54.45C218.758 54.45 219.551 54.2633 220.205 53.89C220.858 53.5167 221.371 53.0733 221.745 52.56C222.211 52 222.538 51.3467 222.725 50.6H239.175C238.615 53.68 237.495 56.4333 235.815 58.86C235.115 59.8867 234.228 60.89 233.155 61.87C232.128 62.85 230.868 63.7367 229.375 64.53C227.928 65.2767 226.248 65.8833 224.335 66.35C222.421 66.8167 220.251 67.05 217.825 67.05ZM257.386 67.05C253.326 67.05 250.082 65.79 247.656 63.27C245.276 60.7033 244.086 56.9467 244.086 52V28.9H260.186V49.2C260.186 50.6933 260.536 51.8367 261.236 52.63C261.982 53.3767 262.916 53.75 264.036 53.75C265.436 53.75 266.602 53.26 267.536 52.28C268.469 51.3 268.936 49.9233 268.936 48.15V28.9H285.036V66H268.936V60.75H268.236C267.536 61.9633 266.649 63.0133 265.576 63.9C264.642 64.6933 263.499 65.4167 262.146 66.07C260.792 66.7233 259.206 67.05 257.386 67.05ZM264.736 11.4H279.436V11.75L269.286 22.25H259.836L264.736 11.4ZM291.322 28.9H306.722V34.5H307.422C307.842 33.3333 308.449 32.2833 309.242 31.35C309.895 30.5567 310.759 29.8333 311.832 29.18C312.905 28.5267 314.235 28.2 315.822 28.2H318.972V43.6H312.252C310.525 43.6 309.289 43.9733 308.542 44.72C307.795 45.42 307.422 46.5633 307.422 48.15V66H291.322V28.9ZM322.836 28.9H338.936V66H322.836V28.9ZM330.886 26.1C328.226 26.1 326.149 25.4 324.656 24C323.209 22.6 322.486 20.85 322.486 18.75C322.486 16.65 323.209 14.9 324.656 13.5C326.149 12.1 328.226 11.4 330.886 11.4C333.546 11.4 335.599 12.1 337.046 13.5C338.539 14.9 339.286 16.65 339.286 18.75C339.286 20.85 338.539 22.6 337.046 24C335.599 25.4 333.546 26.1 330.886 26.1ZM365.907 67.05C362.594 67.05 359.561 66.5367 356.807 65.51C354.101 64.4833 351.791 63.0833 349.877 61.31C347.964 59.5367 346.471 57.46 345.397 55.08C344.371 52.7 343.857 50.1567 343.857 47.45C343.857 44.7433 344.371 42.2 345.397 39.82C346.471 37.44 347.964 35.3633 349.877 33.59C351.791 31.8167 354.101 30.4167 356.807 29.39C359.561 28.3633 362.594 27.85 365.907 27.85C369.221 27.85 372.231 28.3633 374.937 29.39C377.644 30.4167 379.954 31.8167 381.867 33.59C383.827 35.3633 385.321 37.44 386.347 39.82C387.421 42.2 387.957 44.7433 387.957 47.45C387.957 50.1567 387.421 52.7 386.347 55.08C385.321 57.46 383.827 59.5367 381.867 61.31C379.954 63.0833 377.644 64.4833 374.937 65.51C372.231 66.5367 369.221 67.05 365.907 67.05ZM365.907 54.45C367.494 54.45 368.824 53.8667 369.897 52.7C370.971 51.4867 371.507 49.7367 371.507 47.45C371.507 45.1633 370.971 43.4367 369.897 42.27C368.824 41.0567 367.494 40.45 365.907 40.45C364.321 40.45 362.991 41.0567 361.917 42.27C360.844 43.4367 360.307 45.1633 360.307 47.45C360.307 49.7367 360.844 51.4867 361.917 52.7C362.991 53.8667 364.321 54.45 365.907 54.45Z" fill="white"/>
<path d="M4 0V78" stroke="#CC0BF9" stroke-opacity="0.96" stroke-width="8"/>
<path d="M23 0V78" stroke="#CC0BF9" stroke-opacity="0.96" stroke-width="8"/>
</svg>
