<svg width="278" height="102" viewBox="0 0 278 102" fill="none" xmlns="http://www.w3.org/2000/svg">
<path d="M46.65 17H64.15L71.85 51.3H75L82.35 17H99.5L87.25 66H59.25L46.65 17ZM120.139 67.05C116.966 67.05 114.072 66.5367 111.459 65.51C108.846 64.4833 106.606 63.0833 104.739 61.31C102.872 59.5367 101.402 57.46 100.329 55.08C99.3024 52.7 98.7891 50.1567 98.7891 47.45C98.7891 44.7433 99.3024 42.2 100.329 39.82C101.402 37.44 102.872 35.3633 104.739 33.59C106.606 31.8167 108.846 30.4167 111.459 29.39C114.072 28.3633 116.966 27.85 120.139 27.85C123.266 27.85 126.136 28.3633 128.749 29.39C131.409 30.4167 133.672 31.8167 135.539 33.59C137.406 35.3633 138.852 37.44 139.879 39.82C140.952 42.2 141.489 44.7433 141.489 47.45V48.5H115.239C115.239 51.16 115.706 53.05 116.639 54.17C117.572 55.29 118.739 55.85 120.139 55.85C121.026 55.85 121.749 55.6867 122.309 55.36C122.869 55.0333 123.336 54.6833 123.709 54.31C124.129 53.8433 124.456 53.3067 124.689 52.7H141.139C140.299 55.4067 138.969 57.81 137.149 59.91C136.356 60.7967 135.422 61.6833 134.349 62.57C133.322 63.41 132.109 64.1567 130.709 64.81C129.356 65.4633 127.792 66 126.019 66.42C124.246 66.84 122.286 67.05 120.139 67.05ZM124.689 43.95C124.596 43.0633 124.362 42.2467 123.989 41.5C123.662 40.8933 123.196 40.3333 122.589 39.82C122.029 39.3067 121.212 39.05 120.139 39.05C119.066 39.05 118.226 39.3067 117.619 39.82C117.059 40.3333 116.616 40.8933 116.289 41.5C115.916 42.2467 115.682 43.0633 115.589 43.95H124.689ZM107.539 21.83L115.239 11.4H125.739L133.439 21.83V22.25H123.989L121.189 18.05H119.789L116.989 22.25H107.539V21.83ZM146.4 28.9H162.5V34.15H163.2C163.9 32.9833 164.787 31.9333 165.86 31C166.793 30.2067 167.913 29.4833 169.22 28.83C170.573 28.1767 172.183 27.85 174.05 27.85C178.11 27.85 181.33 29.1333 183.71 31.7C186.137 34.22 187.35 37.9533 187.35 42.9V66H171.25V45.7C171.25 44.2067 170.877 43.0867 170.13 42.34C169.43 41.5467 168.52 41.15 167.4 41.15C166 41.15 164.833 41.64 163.9 42.62C162.967 43.6 162.5 44.9767 162.5 46.75V66H146.4V28.9ZM206.595 67.05C202.535 67.05 199.291 65.79 196.865 63.27C194.485 60.7033 193.295 56.9467 193.295 52V28.9H209.395V49.2C209.395 50.6933 209.745 51.8367 210.445 52.63C211.191 53.3767 212.125 53.75 213.245 53.75C214.645 53.75 215.811 53.26 216.745 52.28C217.678 51.3 218.145 49.9233 218.145 48.15V28.9H234.245V66H218.145V60.75H217.445C216.745 61.9633 215.858 63.0133 214.785 63.9C213.851 64.6933 212.708 65.4167 211.355 66.07C210.001 66.7233 208.415 67.05 206.595 67.05ZM258.731 67.05C256.398 67.05 254.321 66.8633 252.501 66.49C250.728 66.1167 249.141 65.6267 247.741 65.02C246.388 64.3667 245.221 63.6433 244.241 62.85C243.261 62.0567 242.444 61.24 241.791 60.4C240.251 58.4867 239.248 56.27 238.781 53.75H253.831C253.924 54.2633 254.158 54.73 254.531 55.15C254.858 55.5233 255.301 55.85 255.861 56.13C256.468 56.41 257.308 56.55 258.381 56.55C259.594 56.55 260.411 56.41 260.831 56.13C261.298 55.85 261.531 55.5233 261.531 55.15C261.531 54.4967 260.994 54.0067 259.921 53.68C258.894 53.3067 257.588 52.9333 256.001 52.56C254.414 52.1867 252.688 51.7667 250.821 51.3C249.001 50.7867 247.298 50.0633 245.711 49.13C244.124 48.1967 242.794 46.9833 241.721 45.49C240.694 43.9967 240.181 42.0833 240.181 39.75C240.181 38.1633 240.531 36.67 241.231 35.27C241.931 33.8233 243.004 32.5633 244.451 31.49C245.944 30.37 247.811 29.4833 250.051 28.83C252.291 28.1767 254.951 27.85 258.031 27.85C260.224 27.85 262.161 28.0367 263.841 28.41C265.568 28.7833 267.084 29.2733 268.391 29.88C269.698 30.4867 270.818 31.1867 271.751 31.98C272.731 32.7733 273.548 33.5667 274.201 34.36C275.741 36.2267 276.768 38.3733 277.281 40.8H262.231C262.091 40.38 261.904 39.9833 261.671 39.61C261.438 39.2833 261.111 39.0033 260.691 38.77C260.318 38.49 259.781 38.35 259.081 38.35C258.194 38.35 257.564 38.49 257.191 38.77C256.818 39.05 256.631 39.3767 256.631 39.75C256.631 40.3567 257.144 40.8233 258.171 41.15C259.244 41.43 260.574 41.7567 262.161 42.13C263.748 42.4567 265.451 42.8767 267.271 43.39C269.138 43.8567 270.864 44.5567 272.451 45.49C274.038 46.3767 275.344 47.5667 276.371 49.06C277.444 50.5533 277.981 52.4667 277.981 54.8C277.981 56.3867 277.584 57.9267 276.791 59.42C276.044 60.8667 274.878 62.1733 273.291 63.34C271.751 64.46 269.768 65.3467 267.341 66C264.914 66.7 262.044 67.05 258.731 67.05Z" fill="white"/>
<path d="M4 0V78" stroke="#CC0BF9" stroke-opacity="0.96" stroke-width="8"/>
<path d="M23 0V78" stroke="#CC0BF9" stroke-opacity="0.96" stroke-width="8"/>
</svg>
