<svg width="401" height="107" viewBox="0 0 401 107" fill="none" xmlns="http://www.w3.org/2000/svg">
<path d="M73.25 72.4C70.4967 72.4 68.0233 72.1433 65.83 71.63C63.6367 71.1167 61.7 70.4633 60.02 69.67C58.34 68.83 56.87 67.8733 55.61 66.8C54.3967 65.7267 53.37 64.63 52.53 63.51C50.5233 60.8967 49.1467 57.91 48.4 54.55H65.9C66.18 55.53 66.6233 56.4167 67.23 57.21C67.7433 57.8633 68.4667 58.47 69.4 59.03C70.38 59.5433 71.6633 59.8 73.25 59.8C75.21 59.8 76.5633 59.52 77.31 58.96C78.1033 58.3533 78.5 57.7 78.5 57C78.5 56.2067 78.08 55.5533 77.24 55.04C76.4467 54.5267 75.3733 54.06 74.02 53.64C72.6667 53.22 71.1267 52.8 69.4 52.38C67.6733 51.96 65.9233 51.4933 64.15 50.98C62.3767 50.42 60.6267 49.7667 58.9 49.02C57.1733 48.2267 55.6333 47.2467 54.28 46.08C52.9267 44.9133 51.83 43.5133 50.99 41.88C50.1967 40.2467 49.8 38.2867 49.8 36C49.8 34.0867 50.2667 32.22 51.2 30.4C52.18 28.5333 53.6033 26.8767 55.47 25.43C57.3833 23.9833 59.7167 22.8167 62.47 21.93C65.27 21.0433 68.5133 20.6 72.2 20.6C74.72 20.6 76.9833 20.8333 78.99 21.3C81.0433 21.7667 82.84 22.3967 84.38 23.19C85.9667 23.9367 87.32 24.8233 88.44 25.85C89.6067 26.83 90.5867 27.8333 91.38 28.86C93.2467 31.2867 94.5533 34.0167 95.3 37.05H77.8C77.66 36.35 77.3567 35.72 76.89 35.16C76.5167 34.6467 75.98 34.2033 75.28 33.83C74.58 33.41 73.67 33.2 72.55 33.2C70.87 33.2 69.68 33.4567 68.98 33.97C68.3267 34.4367 68 34.9967 68 35.65C68 36.49 68.7 37.1433 70.1 37.61C71.5467 38.03 73.32 38.4733 75.42 38.94C77.5667 39.4067 79.8767 39.9667 82.35 40.62C84.8233 41.2733 87.11 42.2067 89.21 43.42C91.3567 44.6333 93.13 46.22 94.53 48.18C95.9767 50.0933 96.7 52.5667 96.7 55.6C96.7 57.7933 96.1867 59.9167 95.16 61.97C94.18 63.9767 92.71 65.75 90.75 67.29C88.79 68.83 86.34 70.0667 83.4 71C80.46 71.9333 77.0767 72.4 73.25 72.4ZM115.633 72.05C113.533 72.05 111.549 71.63 109.683 70.79C107.816 69.9033 106.183 68.6433 104.783 67.01C103.383 65.33 102.263 63.2767 101.423 60.85C100.629 58.4233 100.233 55.6233 100.233 52.45C100.233 49.3233 100.629 46.5467 101.423 44.12C102.263 41.6467 103.383 39.5933 104.783 37.96C106.183 36.28 107.816 35.02 109.683 34.18C111.549 33.2933 113.533 32.85 115.633 32.85C117.593 32.85 119.249 33.1767 120.603 33.83C121.956 34.4367 123.076 35.1133 123.963 35.86C124.989 36.7 125.829 37.68 126.483 38.8H127.183V33.9H143.283V71H127.183V66.1H126.483C125.829 67.2667 124.989 68.27 123.963 69.11C123.076 69.8567 121.956 70.5333 120.603 71.14C119.249 71.7467 117.593 72.05 115.633 72.05ZM122.003 59.1C123.356 59.1 124.546 58.5167 125.573 57.35C126.646 56.1833 127.183 54.55 127.183 52.45C127.183 50.35 126.646 48.7167 125.573 47.55C124.546 46.3833 123.356 45.8 122.003 45.8C120.556 45.8 119.296 46.3833 118.223 47.55C117.196 48.7167 116.683 50.35 116.683 52.45C116.683 54.55 117.196 56.1833 118.223 57.35C119.296 58.5167 120.556 59.1 122.003 59.1ZM152.063 44.75H147.163V33.9H152.063V26.2H168.163V33.9H176.563V44.75H168.163V60.15H177.263V71H152.063V44.75ZM195.794 72.05C191.734 72.05 188.49 70.79 186.064 68.27C183.684 65.7033 182.494 61.9467 182.494 57V33.9H198.594V54.2C198.594 55.6933 198.944 56.8367 199.644 57.63C200.39 58.3767 201.324 58.75 202.444 58.75C203.844 58.75 205.01 58.26 205.944 57.28C206.877 56.3 207.344 54.9233 207.344 53.15V33.9H223.444V71H207.344V65.75H206.644C205.944 66.9633 205.057 68.0133 203.984 68.9C203.05 69.6933 201.907 70.4167 200.554 71.07C199.2 71.7233 197.614 72.05 195.794 72.05ZM229.73 33.9H245.13V39.5H245.83C246.25 38.3333 246.857 37.2833 247.65 36.35C248.303 35.5567 249.167 34.8333 250.24 34.18C251.313 33.5267 252.643 33.2 254.23 33.2H257.38V48.6H250.66C248.933 48.6 247.697 48.9733 246.95 49.72C246.203 50.42 245.83 51.5633 245.83 53.15V71H229.73V33.9ZM261.244 33.9H277.344V39.15H278.044C278.744 37.9833 279.63 36.9333 280.704 36C281.637 35.2067 282.757 34.4833 284.064 33.83C285.417 33.1767 287.027 32.85 288.894 32.85C292.954 32.85 296.174 34.1333 298.554 36.7C300.98 39.22 302.194 42.9533 302.194 47.9V71H286.094V50.7C286.094 49.2067 285.72 48.0867 284.974 47.34C284.274 46.5467 283.364 46.15 282.244 46.15C280.844 46.15 279.677 46.64 278.744 47.62C277.81 48.6 277.344 49.9767 277.344 51.75V71H261.244V33.9ZM328.788 72.05C325.475 72.05 322.442 71.5367 319.688 70.51C316.982 69.4833 314.672 68.0833 312.758 66.31C310.845 64.5367 309.352 62.46 308.278 60.08C307.252 57.7 306.738 55.1567 306.738 52.45C306.738 49.7433 307.252 47.2 308.278 44.82C309.352 42.44 310.845 40.3633 312.758 38.59C314.672 36.8167 316.982 35.4167 319.688 34.39C322.442 33.3633 325.475 32.85 328.788 32.85C332.102 32.85 335.112 33.3633 337.818 34.39C340.525 35.4167 342.835 36.8167 344.748 38.59C346.708 40.3633 348.202 42.44 349.228 44.82C350.302 47.2 350.838 49.7433 350.838 52.45C350.838 55.1567 350.302 57.7 349.228 60.08C348.202 62.46 346.708 64.5367 344.748 66.31C342.835 68.0833 340.525 69.4833 337.818 70.51C335.112 71.5367 332.102 72.05 328.788 72.05ZM328.788 59.45C330.375 59.45 331.705 58.8667 332.778 57.7C333.852 56.4867 334.388 54.7367 334.388 52.45C334.388 50.1633 333.852 48.4367 332.778 47.27C331.705 46.0567 330.375 45.45 328.788 45.45C327.202 45.45 325.872 46.0567 324.798 47.27C323.725 48.4367 323.188 50.1633 323.188 52.45C323.188 54.7367 323.725 56.4867 324.798 57.7C325.872 58.8667 327.202 59.45 328.788 59.45Z" fill="white"/>
<path d="M4 0V89.5" stroke="#CC0BF9" stroke-opacity="0.96" stroke-width="8"/>
<path d="M23 0V89.5" stroke="#CC0BF9" stroke-opacity="0.96" stroke-width="8"/>
</svg>
