<svg width="401" height="102" viewBox="0 0 401 102" fill="none" xmlns="http://www.w3.org/2000/svg">
<path d="M51.2 17H74.65L81.3 39.75H83.05L89.7 17H112.8V66H95.3V43.67L96.35 37.3H95.65L90.05 54.8H73.95L68.35 37.3H67.65L68.7 43.67V66H51.2V17ZM134.5 67.05C132.4 67.05 130.417 66.63 128.55 65.79C126.683 64.9033 125.05 63.6433 123.65 62.01C122.25 60.33 121.13 58.2767 120.29 55.85C119.497 53.4233 119.1 50.6233 119.1 47.45C119.1 44.3233 119.497 41.5467 120.29 39.12C121.13 36.6467 122.25 34.5933 123.65 32.96C125.05 31.28 126.683 30.02 128.55 29.18C130.417 28.2933 132.4 27.85 134.5 27.85C136.46 27.85 138.117 28.1767 139.47 28.83C140.823 29.4367 141.943 30.1133 142.83 30.86C143.857 31.7 144.697 32.68 145.35 33.8H146.05V28.9H162.15V66H146.05V61.1H145.35C144.697 62.2667 143.857 63.27 142.83 64.11C141.943 64.8567 140.823 65.5333 139.47 66.14C138.117 66.7467 136.46 67.05 134.5 67.05ZM140.87 54.1C142.223 54.1 143.413 53.5167 144.44 52.35C145.513 51.1833 146.05 49.55 146.05 47.45C146.05 45.35 145.513 43.7167 144.44 42.55C143.413 41.3833 142.223 40.8 140.87 40.8C139.423 40.8 138.163 41.3833 137.09 42.55C136.063 43.7167 135.55 45.35 135.55 47.45C135.55 49.55 136.063 51.1833 137.09 52.35C138.163 53.5167 139.423 54.1 140.87 54.1ZM168.48 28.9H183.88V34.5H184.58C185 33.3333 185.607 32.2833 186.4 31.35C187.053 30.5567 187.917 29.8333 188.99 29.18C190.063 28.5267 191.393 28.2 192.98 28.2H196.13V43.6H189.41C187.683 43.6 186.447 43.9733 185.7 44.72C184.953 45.42 184.58 46.5633 184.58 48.15V66H168.48V28.9ZM202.444 39.75H197.544V28.9H202.444V21.2H218.544V28.9H226.944V39.75H218.544V55.15H227.644V66H202.444V39.75ZM252.825 67.05C249.651 67.05 246.758 66.5367 244.145 65.51C241.531 64.4833 239.291 63.0833 237.425 61.31C235.558 59.5367 234.088 57.46 233.015 55.08C231.988 52.7 231.475 50.1567 231.475 47.45C231.475 44.7433 231.988 42.2 233.015 39.82C234.088 37.44 235.558 35.3633 237.425 33.59C239.291 31.8167 241.531 30.4167 244.145 29.39C246.758 28.3633 249.651 27.85 252.825 27.85C255.951 27.85 258.821 28.3633 261.435 29.39C264.095 30.4167 266.358 31.8167 268.225 33.59C270.091 35.3633 271.538 37.44 272.565 39.82C273.638 42.2 274.175 44.7433 274.175 47.45V48.5H247.925C247.925 51.16 248.391 53.05 249.325 54.17C250.258 55.29 251.425 55.85 252.825 55.85C253.711 55.85 254.435 55.6867 254.995 55.36C255.555 55.0333 256.021 54.6833 256.395 54.31C256.815 53.8433 257.141 53.3067 257.375 52.7H273.825C272.985 55.4067 271.655 57.81 269.835 59.91C269.041 60.7967 268.108 61.6833 267.035 62.57C266.008 63.41 264.795 64.1567 263.395 64.81C262.041 65.4633 260.478 66 258.705 66.42C256.931 66.84 254.971 67.05 252.825 67.05ZM257.375 43.95C257.281 43.0633 257.048 42.2467 256.675 41.5C256.348 40.8933 255.881 40.3333 255.275 39.82C254.715 39.3067 253.898 39.05 252.825 39.05C251.751 39.05 250.911 39.3067 250.305 39.82C249.745 40.3333 249.301 40.8933 248.975 41.5C248.601 42.2467 248.368 43.0633 248.275 43.95H257.375Z" fill="white"/>
<path d="M4 0V78" stroke="#CC0BF9" stroke-opacity="0.96" stroke-width="8"/>
<path d="M23 0V78" stroke="#CC0BF9" stroke-opacity="0.96" stroke-width="8"/>
</svg>
