<svg width="670" height="131" viewBox="0 0 670 131" fill="none" xmlns="http://www.w3.org/2000/svg">
<path d="M77.1 67.4C72.9 67.4 69.0733 66.7233 65.62 65.37C62.1667 64.0167 59.2033 62.1733 56.73 59.84C54.3033 57.5067 52.4133 54.7767 51.06 51.65C49.7533 48.4767 49.1 45.0933 49.1 41.5C49.1 37.9067 49.7533 34.5467 51.06 31.42C52.4133 28.2467 54.3033 25.4933 56.73 23.16C59.2033 20.8267 62.1667 18.9833 65.62 17.63C69.0733 16.2767 72.9 15.6 77.1 15.6C79.9 15.6 82.42 15.9033 84.66 16.51C86.9 17.07 88.9067 17.84 90.68 18.82C92.4533 19.7533 93.9933 20.8267 95.3 22.04C96.6533 23.2533 97.82 24.49 98.8 25.75C101.04 28.7367 102.673 32.12 103.7 35.9H86.2C85.7333 34.8733 85.08 33.94 84.24 33.1C83.54 32.4 82.6067 31.77 81.44 31.21C80.32 30.6033 78.8733 30.3 77.1 30.3C74.3 30.3 71.9667 31.3033 70.1 33.31C68.2333 35.27 67.3 38 67.3 41.5C67.3 45 68.2333 47.7533 70.1 49.76C71.9667 51.72 74.3 52.7 77.1 52.7C79.06 52.7 80.6467 52.35 81.86 51.65C83.0733 50.9033 84.03 50.0867 84.73 49.2C85.57 48.1733 86.1767 47.0067 86.55 45.7H104.05C103.023 49.7133 101.367 53.33 99.08 56.55C98.1 57.9033 96.9333 59.2333 95.58 60.54C94.2267 61.8467 92.64 63.0133 90.82 64.04C89.0467 65.0667 87.0167 65.8833 84.73 66.49C82.49 67.0967 79.9467 67.4 77.1 67.4ZM129.231 67.05C126.058 67.05 123.164 66.5367 120.551 65.51C117.938 64.4833 115.698 63.0833 113.831 61.31C111.964 59.5367 110.494 57.46 109.421 55.08C108.394 52.7 107.881 50.1567 107.881 47.45C107.881 44.7433 108.394 42.2 109.421 39.82C110.494 37.44 111.964 35.3633 113.831 33.59C115.698 31.8167 117.938 30.4167 120.551 29.39C123.164 28.3633 126.058 27.85 129.231 27.85C132.358 27.85 135.228 28.3633 137.841 29.39C140.501 30.4167 142.764 31.8167 144.631 33.59C146.498 35.3633 147.944 37.44 148.971 39.82C150.044 42.2 150.581 44.7433 150.581 47.45V48.5H124.331C124.331 51.16 124.798 53.05 125.731 54.17C126.664 55.29 127.831 55.85 129.231 55.85C130.118 55.85 130.841 55.6867 131.401 55.36C131.961 55.0333 132.428 54.6833 132.801 54.31C133.221 53.8433 133.548 53.3067 133.781 52.7H150.231C149.391 55.4067 148.061 57.81 146.241 59.91C145.448 60.7967 144.514 61.6833 143.441 62.57C142.414 63.41 141.201 64.1567 139.801 64.81C138.448 65.4633 136.884 66 135.111 66.42C133.338 66.84 131.378 67.05 129.231 67.05ZM133.781 43.95C133.688 43.0633 133.454 42.2467 133.081 41.5C132.754 40.8933 132.288 40.3333 131.681 39.82C131.121 39.3067 130.304 39.05 129.231 39.05C128.158 39.05 127.318 39.3067 126.711 39.82C126.151 40.3333 125.708 40.8933 125.381 41.5C125.008 42.2467 124.774 43.0633 124.681 43.95H133.781ZM155.492 28.9H171.592V34.15H172.292C172.992 32.9833 173.878 31.9333 174.952 31C175.885 30.2067 177.005 29.4833 178.312 28.83C179.665 28.1767 181.275 27.85 183.142 27.85C187.202 27.85 190.422 29.1333 192.802 31.7C195.228 34.22 196.442 37.9533 196.442 42.9V66H180.342V45.7C180.342 44.2067 179.968 43.0867 179.222 42.34C178.522 41.5467 177.612 41.15 176.492 41.15C175.092 41.15 173.925 41.64 172.992 42.62C172.058 43.6 171.592 44.9767 171.592 46.75V66H155.492V28.9ZM204.836 39.75H199.936V28.9H204.836V21.2H220.936V28.9H229.336V39.75H220.936V55.15H230.036V66H204.836V39.75ZM249.617 67.05C247.517 67.05 245.534 66.63 243.667 65.79C241.801 64.9033 240.167 63.6433 238.767 62.01C237.367 60.33 236.247 58.2767 235.407 55.85C234.614 53.4233 234.217 50.6233 234.217 47.45C234.217 44.3233 234.614 41.5467 235.407 39.12C236.247 36.6467 237.367 34.5933 238.767 32.96C240.167 31.28 241.801 30.02 243.667 29.18C245.534 28.2933 247.517 27.85 249.617 27.85C251.577 27.85 253.234 28.1767 254.587 28.83C255.941 29.4367 257.061 30.1133 257.947 30.86C258.974 31.7 259.814 32.68 260.467 33.8H261.167V28.9H277.267V66H261.167V61.1H260.467C259.814 62.2667 258.974 63.27 257.947 64.11C257.061 64.8567 255.941 65.5333 254.587 66.14C253.234 66.7467 251.577 67.05 249.617 67.05ZM255.987 54.1C257.341 54.1 258.531 53.5167 259.557 52.35C260.631 51.1833 261.167 49.55 261.167 47.45C261.167 45.35 260.631 43.7167 259.557 42.55C258.531 41.3833 257.341 40.8 255.987 40.8C254.541 40.8 253.281 41.3833 252.207 42.55C251.181 43.7167 250.667 45.35 250.667 47.45C250.667 49.55 251.181 51.1833 252.207 52.35C253.281 53.5167 254.541 54.1 255.987 54.1ZM296.897 67.05C292.837 67.05 289.594 65.79 287.167 63.27C284.787 60.7033 283.597 56.9467 283.597 52V28.9H299.697V49.2C299.697 50.6933 300.047 51.8367 300.747 52.63C301.494 53.3767 302.427 53.75 303.547 53.75C304.947 53.75 306.114 53.26 307.047 52.28C307.981 51.3 308.447 49.9233 308.447 48.15V28.9H324.547V66H308.447V60.75H307.747C307.047 61.9633 306.161 63.0133 305.087 63.9C304.154 64.6933 303.011 65.4167 301.657 66.07C300.304 66.7233 298.717 67.05 296.897 67.05ZM330.834 28.9H346.234V34.5H346.934C347.354 33.3333 347.96 32.2833 348.754 31.35C349.407 30.5567 350.27 29.8333 351.344 29.18C352.417 28.5267 353.747 28.2 355.334 28.2H358.484V43.6H351.764C350.037 43.6 348.8 43.9733 348.054 44.72C347.307 45.42 346.934 46.5633 346.934 48.15V66H330.834V28.9ZM382.997 67.05C379.684 67.05 376.651 66.5367 373.897 65.51C371.191 64.4833 368.881 63.0833 366.967 61.31C365.054 59.5367 363.561 57.46 362.487 55.08C361.461 52.7 360.947 50.1567 360.947 47.45C360.947 44.7433 361.461 42.2 362.487 39.82C363.561 37.44 365.054 35.3633 366.967 33.59C368.881 31.8167 371.191 30.4167 373.897 29.39C376.651 28.3633 379.684 27.85 382.997 27.85C386.311 27.85 389.321 28.3633 392.027 29.39C394.734 30.4167 397.044 31.8167 398.957 33.59C400.917 35.3633 402.411 37.44 403.437 39.82C404.511 42.2 405.047 44.7433 405.047 47.45C405.047 50.1567 404.511 52.7 403.437 55.08C402.411 57.46 400.917 59.5367 398.957 61.31C397.044 63.0833 394.734 64.4833 392.027 65.51C389.321 66.5367 386.311 67.05 382.997 67.05ZM382.997 54.45C384.584 54.45 385.914 53.8667 386.987 52.7C388.061 51.4867 388.597 49.7367 388.597 47.45C388.597 45.1633 388.061 43.4367 386.987 42.27C385.914 41.0567 384.584 40.45 382.997 40.45C381.411 40.45 380.081 41.0567 379.007 42.27C377.934 43.4367 377.397 45.1633 377.397 47.45C377.397 49.7367 377.934 51.4867 379.007 52.7C380.081 53.8667 381.411 54.45 382.997 54.45ZM428.125 67.05C425.792 67.05 423.715 66.8633 421.895 66.49C420.122 66.1167 418.535 65.6267 417.135 65.02C415.782 64.3667 414.615 63.6433 413.635 62.85C412.655 62.0567 411.839 61.24 411.185 60.4C409.645 58.4867 408.642 56.27 408.175 53.75H423.225C423.319 54.2633 423.552 54.73 423.925 55.15C424.252 55.5233 424.695 55.85 425.255 56.13C425.862 56.41 426.702 56.55 427.775 56.55C428.989 56.55 429.805 56.41 430.225 56.13C430.692 55.85 430.925 55.5233 430.925 55.15C430.925 54.4967 430.389 54.0067 429.315 53.68C428.289 53.3067 426.982 52.9333 425.395 52.56C423.809 52.1867 422.082 51.7667 420.215 51.3C418.395 50.7867 416.692 50.0633 415.105 49.13C413.519 48.1967 412.189 46.9833 411.115 45.49C410.089 43.9967 409.575 42.0833 409.575 39.75C409.575 38.1633 409.925 36.67 410.625 35.27C411.325 33.8233 412.399 32.5633 413.845 31.49C415.339 30.37 417.205 29.4833 419.445 28.83C421.685 28.1767 424.345 27.85 427.425 27.85C429.619 27.85 431.555 28.0367 433.235 28.41C434.962 28.7833 436.479 29.2733 437.785 29.88C439.092 30.4867 440.212 31.1867 441.145 31.98C442.125 32.7733 442.942 33.5667 443.595 34.36C445.135 36.2267 446.162 38.3733 446.675 40.8H431.625C431.485 40.38 431.299 39.9833 431.065 39.61C430.832 39.2833 430.505 39.0033 430.085 38.77C429.712 38.49 429.175 38.35 428.475 38.35C427.589 38.35 426.959 38.49 426.585 38.77C426.212 39.05 426.025 39.3767 426.025 39.75C426.025 40.3567 426.539 40.8233 427.565 41.15C428.639 41.43 429.969 41.7567 431.555 42.13C433.142 42.4567 434.845 42.8767 436.665 43.39C438.532 43.8567 440.259 44.5567 441.845 45.49C443.432 46.3767 444.739 47.5667 445.765 49.06C446.839 50.5533 447.375 52.4667 447.375 54.8C447.375 56.3867 446.979 57.9267 446.185 59.42C445.439 60.8667 444.272 62.1733 442.685 63.34C441.145 64.46 439.162 65.3467 436.735 66C434.309 66.7 431.439 67.05 428.125 67.05ZM479.198 17H506.848L520.148 66H502.648L500.198 56.9H485.148L482.698 66H465.548L479.198 17ZM497.398 44.65L494.248 31.7H491.448L487.948 44.65H497.398Z" fill="white"/>
<path d="M4 0V78" stroke="#CC0BF9" stroke-opacity="0.96" stroke-width="8"/>
<path d="M23 0V78" stroke="#CC0BF9" stroke-opacity="0.96" stroke-width="8"/>
</svg>
