<svg width="401" height="102" viewBox="0 0 401 102" fill="none" xmlns="http://www.w3.org/2000/svg">
<path d="M75 67.4C71.1267 67.4 67.6967 66.8867 64.71 65.86C61.7233 64.7867 59.2033 63.3167 57.15 61.45C55.0967 59.5367 53.5333 57.25 52.46 54.59C51.3867 51.8833 50.85 48.92 50.85 45.7V17H68.35V45C68.35 47.2867 68.9333 49.0367 70.1 50.25C71.2667 51.4167 72.9 52 75 52C77.1 52 78.7333 51.4167 79.9 50.25C81.0667 49.0367 81.65 47.2867 81.65 45V17H99.15V45.7C99.15 48.92 98.6133 51.8833 97.54 54.59C96.4667 57.25 94.9033 59.5367 92.85 61.45C90.7967 63.3167 88.2533 64.7867 85.22 65.86C82.2333 66.8867 78.8267 67.4 75 67.4ZM106.136 28.9H121.536V34.5H122.236C122.656 33.3333 123.263 32.2833 124.056 31.35C124.71 30.5567 125.573 29.8333 126.646 29.18C127.72 28.5267 129.05 28.2 130.636 28.2H133.786V43.6H127.066C125.34 43.6 124.103 43.9733 123.356 44.72C122.61 45.42 122.236 46.5633 122.236 48.15V66H106.136V28.9ZM152 67.05C149.9 67.05 147.917 66.63 146.05 65.79C144.183 64.9033 142.55 63.6433 141.15 62.01C139.75 60.33 138.63 58.2767 137.79 55.85C136.997 53.4233 136.6 50.6233 136.6 47.45C136.6 44.3233 136.997 41.5467 137.79 39.12C138.63 36.6467 139.75 34.5933 141.15 32.96C142.55 31.28 144.183 30.02 146.05 29.18C147.917 28.2933 149.9 27.85 152 27.85C153.96 27.85 155.617 28.1767 156.97 28.83C158.323 29.4367 159.443 30.1133 160.33 30.86C161.357 31.7 162.197 32.68 162.85 33.8H163.55V28.9H179.65V66H163.55V61.1H162.85C162.197 62.2667 161.357 63.27 160.33 64.11C159.443 64.8567 158.323 65.5333 156.97 66.14C155.617 66.7467 153.96 67.05 152 67.05ZM158.37 54.1C159.723 54.1 160.913 53.5167 161.94 52.35C163.013 51.1833 163.55 49.55 163.55 47.45C163.55 45.35 163.013 43.7167 161.94 42.55C160.913 41.3833 159.723 40.8 158.37 40.8C156.923 40.8 155.663 41.3833 154.59 42.55C153.563 43.7167 153.05 45.35 153.05 47.45C153.05 49.55 153.563 51.1833 154.59 52.35C155.663 53.5167 156.923 54.1 158.37 54.1ZM185.98 28.9H202.08V34.15H202.78C203.48 32.9833 204.367 31.9333 205.44 31C206.373 30.2067 207.493 29.4833 208.8 28.83C210.153 28.1767 211.763 27.85 213.63 27.85C217.69 27.85 220.91 29.1333 223.29 31.7C225.717 34.22 226.93 37.9533 226.93 42.9V66H210.83V45.7C210.83 44.2067 210.457 43.0867 209.71 42.34C209.01 41.5467 208.1 41.15 206.98 41.15C205.58 41.15 204.413 41.64 203.48 42.62C202.547 43.6 202.08 44.9767 202.08 46.75V66H185.98V28.9ZM253.525 67.05C250.211 67.05 247.178 66.5367 244.425 65.51C241.718 64.4833 239.408 63.0833 237.495 61.31C235.581 59.5367 234.088 57.46 233.015 55.08C231.988 52.7 231.475 50.1567 231.475 47.45C231.475 44.7433 231.988 42.2 233.015 39.82C234.088 37.44 235.581 35.3633 237.495 33.59C239.408 31.8167 241.718 30.4167 244.425 29.39C247.178 28.3633 250.211 27.85 253.525 27.85C256.838 27.85 259.848 28.3633 262.555 29.39C265.261 30.4167 267.571 31.8167 269.485 33.59C271.445 35.3633 272.938 37.44 273.965 39.82C275.038 42.2 275.575 44.7433 275.575 47.45C275.575 50.1567 275.038 52.7 273.965 55.08C272.938 57.46 271.445 59.5367 269.485 61.31C267.571 63.0833 265.261 64.4833 262.555 65.51C259.848 66.5367 256.838 67.05 253.525 67.05ZM253.525 54.45C255.111 54.45 256.441 53.8667 257.515 52.7C258.588 51.4867 259.125 49.7367 259.125 47.45C259.125 45.1633 258.588 43.4367 257.515 42.27C256.441 41.0567 255.111 40.45 253.525 40.45C251.938 40.45 250.608 41.0567 249.535 42.27C248.461 43.4367 247.925 45.1633 247.925 47.45C247.925 49.7367 248.461 51.4867 249.535 52.7C250.608 53.8667 251.938 54.45 253.525 54.45Z" fill="white"/>
<path d="M4 0V78" stroke="#CC0BF9" stroke-opacity="0.96" stroke-width="8"/>
<path d="M23 0V78" stroke="#CC0BF9" stroke-opacity="0.96" stroke-width="8"/>
</svg>
