<svg width="401" height="102" viewBox="0 0 401 102" fill="none" xmlns="http://www.w3.org/2000/svg">
<path d="M62.4 32.4H47.7V17H94.6V32.4H79.9V66H62.4V32.4ZM115.627 67.05C112.454 67.05 109.561 66.5367 106.947 65.51C104.334 64.4833 102.094 63.0833 100.227 61.31C98.3607 59.5367 96.8907 57.46 95.8173 55.08C94.7907 52.7 94.2773 50.1567 94.2773 47.45C94.2773 44.7433 94.7907 42.2 95.8173 39.82C96.8907 37.44 98.3607 35.3633 100.227 33.59C102.094 31.8167 104.334 30.4167 106.947 29.39C109.561 28.3633 112.454 27.85 115.627 27.85C118.754 27.85 121.624 28.3633 124.237 29.39C126.897 30.4167 129.161 31.8167 131.027 33.59C132.894 35.3633 134.341 37.44 135.367 39.82C136.441 42.2 136.977 44.7433 136.977 47.45V48.5H110.727C110.727 51.16 111.194 53.05 112.127 54.17C113.061 55.29 114.227 55.85 115.627 55.85C116.514 55.85 117.237 55.6867 117.797 55.36C118.357 55.0333 118.824 54.6833 119.197 54.31C119.617 53.8433 119.944 53.3067 120.177 52.7H136.627C135.787 55.4067 134.457 57.81 132.637 59.91C131.844 60.7967 130.911 61.6833 129.837 62.57C128.811 63.41 127.597 64.1567 126.197 64.81C124.844 65.4633 123.281 66 121.507 66.42C119.734 66.84 117.774 67.05 115.627 67.05ZM120.177 43.95C120.084 43.0633 119.851 42.2467 119.477 41.5C119.151 40.8933 118.684 40.3333 118.077 39.82C117.517 39.3067 116.701 39.05 115.627 39.05C114.554 39.05 113.714 39.3067 113.107 39.82C112.547 40.3333 112.104 40.8933 111.777 41.5C111.404 42.2467 111.171 43.0633 111.077 43.95H120.177ZM141.888 28.9H157.288V34.5H157.988C158.408 33.3333 159.015 32.2833 159.808 31.35C160.462 30.5567 161.325 29.8333 162.398 29.18C163.472 28.5267 164.802 28.2 166.388 28.2H169.538V43.6H162.818C161.092 43.6 159.855 43.9733 159.108 44.72C158.362 45.42 157.988 46.5633 157.988 48.15V66H141.888V28.9ZM173.402 28.9H188.802V34.5H189.502C189.922 33.3333 190.529 32.2833 191.322 31.35C191.975 30.5567 192.839 29.8333 193.912 29.18C194.985 28.5267 196.315 28.2 197.902 28.2H201.052V43.6H194.332C192.605 43.6 191.369 43.9733 190.622 44.72C189.875 45.42 189.502 46.5633 189.502 48.15V66H173.402V28.9ZM219.266 67.05C217.166 67.05 215.182 66.63 213.316 65.79C211.449 64.9033 209.816 63.6433 208.416 62.01C207.016 60.33 205.896 58.2767 205.056 55.85C204.262 53.4233 203.866 50.6233 203.866 47.45C203.866 44.3233 204.262 41.5467 205.056 39.12C205.896 36.6467 207.016 34.5933 208.416 32.96C209.816 31.28 211.449 30.02 213.316 29.18C215.182 28.2933 217.166 27.85 219.266 27.85C221.226 27.85 222.882 28.1767 224.236 28.83C225.589 29.4367 226.709 30.1133 227.596 30.86C228.622 31.7 229.462 32.68 230.116 33.8H230.816V28.9H246.916V66H230.816V61.1H230.116C229.462 62.2667 228.622 63.27 227.596 64.11C226.709 64.8567 225.589 65.5333 224.236 66.14C222.882 66.7467 221.226 67.05 219.266 67.05ZM225.636 54.1C226.989 54.1 228.179 53.5167 229.206 52.35C230.279 51.1833 230.816 49.55 230.816 47.45C230.816 45.35 230.279 43.7167 229.206 42.55C228.179 41.3833 226.989 40.8 225.636 40.8C224.189 40.8 222.929 41.3833 221.856 42.55C220.829 43.7167 220.316 45.35 220.316 47.45C220.316 49.55 220.829 51.1833 221.856 52.35C222.929 53.5167 224.189 54.1 225.636 54.1Z" fill="white"/>
<path d="M4 12V90" stroke="#CC0BF9" stroke-opacity="0.96" stroke-width="8"/>
<path d="M23 12V90" stroke="#CC0BF9" stroke-opacity="0.96" stroke-width="8"/>
</svg>
