<svg width="566" height="131" viewBox="0 0 566 131" fill="none" xmlns="http://www.w3.org/2000/svg">
<path d="M59.95 17H87.6L100.9 66H83.4L80.95 56.9H65.9L63.45 66H46.3L59.95 17ZM78.15 44.65L75 31.7H72.2L68.7 44.65H78.15ZM103.334 28.9H119.434V34.15H120.134C120.834 32.9833 121.72 31.9333 122.794 31C123.727 30.2067 124.847 29.4833 126.154 28.83C127.507 28.1767 129.117 27.85 130.984 27.85C135.044 27.85 138.264 29.1333 140.644 31.7C143.07 34.22 144.284 37.9533 144.284 42.9V66H128.184V45.7C128.184 44.2067 127.81 43.0867 127.064 42.34C126.364 41.5467 125.454 41.15 124.334 41.15C122.934 41.15 121.767 41.64 120.834 42.62C119.9 43.6 119.434 44.9767 119.434 46.75V66H103.334V28.9ZM164.578 67.05C162.478 67.05 160.495 66.63 158.628 65.79C156.761 64.9033 155.128 63.6433 153.728 62.01C152.328 60.33 151.208 58.2767 150.368 55.85C149.575 53.4233 149.178 50.6233 149.178 47.45C149.178 44.3233 149.575 41.5467 150.368 39.12C151.208 36.6467 152.328 34.5933 153.728 32.96C155.128 31.28 156.761 30.02 158.628 29.18C160.495 28.2933 162.478 27.85 164.578 27.85C166.538 27.85 168.195 28.1767 169.548 28.83C170.901 29.4367 172.021 30.1133 172.908 30.86C173.935 31.7 174.775 32.68 175.428 33.8H176.128V17H192.228V66H176.128V61.1H175.428C174.775 62.2667 173.935 63.27 172.908 64.11C172.021 64.8567 170.901 65.5333 169.548 66.14C168.195 66.7467 166.538 67.05 164.578 67.05ZM170.948 54.1C172.301 54.1 173.491 53.5167 174.518 52.35C175.591 51.1833 176.128 49.55 176.128 47.45C176.128 45.35 175.591 43.7167 174.518 42.55C173.491 41.3833 172.301 40.8 170.948 40.8C169.501 40.8 168.241 41.3833 167.168 42.55C166.141 43.7167 165.628 45.35 165.628 47.45C165.628 49.55 166.141 51.1833 167.168 52.35C168.241 53.5167 169.501 54.1 170.948 54.1ZM198.558 28.9H213.958V34.5H214.658C215.078 33.3333 215.685 32.2833 216.478 31.35C217.132 30.5567 217.995 29.8333 219.068 29.18C220.142 28.5267 221.472 28.2 223.058 28.2H226.208V43.6H219.488C217.762 43.6 216.525 43.9733 215.778 44.72C215.032 45.42 214.658 46.5633 214.658 48.15V66H198.558V28.9ZM250.722 67.05C247.409 67.05 244.375 66.5367 241.622 65.51C238.915 64.4833 236.605 63.0833 234.692 61.31C232.779 59.5367 231.285 57.46 230.212 55.08C229.185 52.7 228.672 50.1567 228.672 47.45C228.672 44.7433 229.185 42.2 230.212 39.82C231.285 37.44 232.779 35.3633 234.692 33.59C236.605 31.8167 238.915 30.4167 241.622 29.39C244.375 28.3633 247.409 27.85 250.722 27.85C254.035 27.85 257.045 28.3633 259.752 29.39C262.459 30.4167 264.769 31.8167 266.682 33.59C268.642 35.3633 270.135 37.44 271.162 39.82C272.235 42.2 272.772 44.7433 272.772 47.45C272.772 50.1567 272.235 52.7 271.162 55.08C270.135 57.46 268.642 59.5367 266.682 61.31C264.769 63.0833 262.459 64.4833 259.752 65.51C257.045 66.5367 254.035 67.05 250.722 67.05ZM250.722 54.45C252.309 54.45 253.639 53.8667 254.712 52.7C255.785 51.4867 256.322 49.7367 256.322 47.45C256.322 45.1633 255.785 43.4367 254.712 42.27C253.639 41.0567 252.309 40.45 250.722 40.45C249.135 40.45 247.805 41.0567 246.732 42.27C245.659 43.4367 245.122 45.1633 245.122 47.45C245.122 49.7367 245.659 51.4867 246.732 52.7C247.805 53.8667 249.135 54.45 250.722 54.45ZM237.772 21.83L245.472 11.4H255.972L263.672 21.83V22.25H254.222L251.422 18.05H250.022L247.222 22.25H237.772V21.83ZM277.65 28.9H293.75V34.15H294.45C295.15 32.9833 296.037 31.9333 297.11 31C298.043 30.2067 299.163 29.4833 300.47 28.83C301.823 28.1767 303.433 27.85 305.3 27.85C307.307 27.85 309.01 28.1767 310.41 28.83C311.81 29.4833 312.93 30.2067 313.77 31C314.75 31.9333 315.543 32.9833 316.15 34.15H316.85C317.503 32.9833 318.343 31.9333 319.37 31C320.257 30.2067 321.377 29.4833 322.73 28.83C324.083 28.1767 325.74 27.85 327.7 27.85C331.947 27.85 335.283 29.1333 337.71 31.7C340.137 34.22 341.35 37.9533 341.35 42.9V66H325.25V45.7C325.25 44.1133 324.923 42.97 324.27 42.27C323.663 41.5233 322.823 41.15 321.75 41.15C320.443 41.15 319.417 41.57 318.67 42.41C317.923 43.25 317.55 44.58 317.55 46.4V66H301.45V45.7C301.45 44.1133 301.123 42.97 300.47 42.27C299.863 41.5233 299.023 41.15 297.95 41.15C296.643 41.15 295.617 41.57 294.87 42.41C294.123 43.25 293.75 44.58 293.75 46.4V66H277.65V28.9ZM367.258 67.05C364.085 67.05 361.192 66.5367 358.578 65.51C355.965 64.4833 353.725 63.0833 351.858 61.31C349.992 59.5367 348.522 57.46 347.448 55.08C346.422 52.7 345.908 50.1567 345.908 47.45C345.908 44.7433 346.422 42.2 347.448 39.82C348.522 37.44 349.992 35.3633 351.858 33.59C353.725 31.8167 355.965 30.4167 358.578 29.39C361.192 28.3633 364.085 27.85 367.258 27.85C370.385 27.85 373.255 28.3633 375.868 29.39C378.528 30.4167 380.792 31.8167 382.658 33.59C384.525 35.3633 385.972 37.44 386.998 39.82C388.072 42.2 388.608 44.7433 388.608 47.45V48.5H362.358C362.358 51.16 362.825 53.05 363.758 54.17C364.692 55.29 365.858 55.85 367.258 55.85C368.145 55.85 368.868 55.6867 369.428 55.36C369.988 55.0333 370.455 54.6833 370.828 54.31C371.248 53.8433 371.575 53.3067 371.808 52.7H388.258C387.418 55.4067 386.088 57.81 384.268 59.91C383.475 60.7967 382.542 61.6833 381.468 62.57C380.442 63.41 379.228 64.1567 377.828 64.81C376.475 65.4633 374.912 66 373.138 66.42C371.365 66.84 369.405 67.05 367.258 67.05ZM371.808 43.95C371.715 43.0633 371.482 42.2467 371.108 41.5C370.782 40.8933 370.315 40.3333 369.708 39.82C369.148 39.3067 368.332 39.05 367.258 39.05C366.185 39.05 365.345 39.3067 364.738 39.82C364.178 40.3333 363.735 40.8933 363.408 41.5C363.035 42.2467 362.802 43.0633 362.708 43.95H371.808ZM407.869 67.05C405.769 67.05 403.786 66.63 401.919 65.79C400.052 64.9033 398.419 63.6433 397.019 62.01C395.619 60.33 394.499 58.2767 393.659 55.85C392.866 53.4233 392.469 50.6233 392.469 47.45C392.469 44.3233 392.866 41.5467 393.659 39.12C394.499 36.6467 395.619 34.5933 397.019 32.96C398.419 31.28 400.052 30.02 401.919 29.18C403.786 28.2933 405.769 27.85 407.869 27.85C409.829 27.85 411.486 28.1767 412.839 28.83C414.192 29.4367 415.312 30.1133 416.199 30.86C417.226 31.7 418.066 32.68 418.719 33.8H419.419V17H435.519V66H419.419V61.1H418.719C418.066 62.2667 417.226 63.27 416.199 64.11C415.312 64.8567 414.192 65.5333 412.839 66.14C411.486 66.7467 409.829 67.05 407.869 67.05ZM414.239 54.1C415.592 54.1 416.782 53.5167 417.809 52.35C418.882 51.1833 419.419 49.55 419.419 47.45C419.419 45.35 418.882 43.7167 417.809 42.55C416.782 41.3833 415.592 40.8 414.239 40.8C412.792 40.8 411.532 41.3833 410.459 42.55C409.432 43.7167 408.919 45.35 408.919 47.45C408.919 49.55 409.432 51.1833 410.459 52.35C411.532 53.5167 412.792 54.1 414.239 54.1ZM456.199 67.05C454.099 67.05 452.116 66.63 450.249 65.79C448.383 64.9033 446.749 63.6433 445.349 62.01C443.949 60.33 442.829 58.2767 441.989 55.85C441.196 53.4233 440.799 50.6233 440.799 47.45C440.799 44.3233 441.196 41.5467 441.989 39.12C442.829 36.6467 443.949 34.5933 445.349 32.96C446.749 31.28 448.383 30.02 450.249 29.18C452.116 28.2933 454.099 27.85 456.199 27.85C458.159 27.85 459.816 28.1767 461.169 28.83C462.523 29.4367 463.643 30.1133 464.529 30.86C465.556 31.7 466.396 32.68 467.049 33.8H467.749V28.9H483.849V66H467.749V61.1H467.049C466.396 62.2667 465.556 63.27 464.529 64.11C463.643 64.8567 462.523 65.5333 461.169 66.14C459.816 66.7467 458.159 67.05 456.199 67.05ZM462.569 54.1C463.923 54.1 465.113 53.5167 466.139 52.35C467.213 51.1833 467.749 49.55 467.749 47.45C467.749 45.35 467.213 43.7167 466.139 42.55C465.113 41.3833 463.923 40.8 462.569 40.8C461.123 40.8 459.863 41.3833 458.789 42.55C457.763 43.7167 457.249 45.35 457.249 47.45C457.249 49.55 457.763 51.1833 458.789 52.35C459.863 53.5167 461.123 54.1 462.569 54.1Z" fill="white"/>
<path d="M4 0V78" stroke="#CC0BF9" stroke-opacity="0.96" stroke-width="8"/>
<path d="M23 0V78" stroke="#CC0BF9" stroke-opacity="0.96" stroke-width="8"/>
</svg>
