<svg width="465" height="102" viewBox="0 0 465 102" fill="none" xmlns="http://www.w3.org/2000/svg">
<path d="M51.2 17H70.8L84.17 40.1H84.8L83.75 33.1V17H101.25V66H81.65L68.35 42.9H67.65L68.7 49.55V66H51.2V17ZM135.547 67.4C131.347 67.4 127.521 66.7233 124.067 65.37C120.614 64.0167 117.651 62.1733 115.177 59.84C112.751 57.5067 110.861 54.7767 109.507 51.65C108.201 48.4767 107.547 45.0933 107.547 41.5C107.547 37.9067 108.201 34.5467 109.507 31.42C110.861 28.2467 112.751 25.4933 115.177 23.16C117.651 20.8267 120.614 18.9833 124.067 17.63C127.521 16.2767 131.347 15.6 135.547 15.6C138.207 15.6 140.611 15.88 142.757 16.44C144.951 16.9533 146.911 17.6533 148.637 18.54C150.364 19.4267 151.881 20.43 153.187 21.55C154.541 22.6233 155.707 23.7433 156.687 24.91C158.974 27.6167 160.677 30.6967 161.797 34.15H144.297C143.877 33.45 143.271 32.82 142.477 32.26C141.824 31.7467 140.961 31.3033 139.887 30.93C138.814 30.51 137.484 30.3 135.897 30.3C132.911 30.3 130.461 31.3033 128.547 33.31C126.681 35.27 125.747 38 125.747 41.5C125.747 45 126.681 47.7533 128.547 49.76C130.461 51.72 132.911 52.7 135.897 52.7C137.717 52.7 139.211 52.49 140.377 52.07C141.591 51.6033 142.524 51.1133 143.177 50.6C143.971 49.9933 144.577 49.2933 144.997 48.5H139.397V38.35H167.397V48.5H162.147C160.934 52.0467 159.161 55.1967 156.827 57.95C155.847 59.1633 154.681 60.33 153.327 61.45C151.974 62.57 150.411 63.5733 148.637 64.46C146.911 65.3467 144.951 66.0467 142.757 66.56C140.611 67.12 138.207 67.4 135.547 67.4ZM197.481 67.4C193.281 67.4 189.454 66.7233 186.001 65.37C182.548 64.0167 179.584 62.1733 177.111 59.84C174.684 57.5067 172.794 54.7767 171.441 51.65C170.134 48.4767 169.481 45.0933 169.481 41.5C169.481 37.9067 170.134 34.5467 171.441 31.42C172.794 28.2467 174.684 25.4933 177.111 23.16C179.584 20.8267 182.548 18.9833 186.001 17.63C189.454 16.2767 193.281 15.6 197.481 15.6C200.281 15.6 202.801 15.9033 205.041 16.51C207.281 17.07 209.288 17.84 211.061 18.82C212.834 19.7533 214.374 20.8267 215.681 22.04C217.034 23.2533 218.201 24.49 219.181 25.75C221.421 28.7367 223.054 32.12 224.081 35.9H206.581C206.114 34.8733 205.461 33.94 204.621 33.1C203.921 32.4 202.988 31.77 201.821 31.21C200.701 30.6033 199.254 30.3 197.481 30.3C194.681 30.3 192.348 31.3033 190.481 33.31C188.614 35.27 187.681 38 187.681 41.5C187.681 45 188.614 47.7533 190.481 49.76C192.348 51.72 194.681 52.7 197.481 52.7C199.441 52.7 201.028 52.35 202.241 51.65C203.454 50.9033 204.411 50.0867 205.111 49.2C205.951 48.1733 206.558 47.0067 206.931 45.7H224.431C223.404 49.7133 221.748 53.33 219.461 56.55C218.481 57.9033 217.314 59.2333 215.961 60.54C214.608 61.8467 213.021 63.0133 211.201 64.04C209.428 65.0667 207.398 65.8833 205.111 66.49C202.871 67.0967 200.328 67.4 197.481 67.4ZM270.981 67.4C268.274 67.4 265.848 67.1433 263.701 66.63C261.601 66.1167 259.734 65.4633 258.101 64.67C256.468 63.83 255.068 62.8733 253.901 61.8C252.734 60.7267 251.754 59.63 250.961 58.51C249.094 55.8967 247.834 52.91 247.181 49.55H264.331C264.611 50.3433 265.008 51.0433 265.521 51.65C265.988 52.1633 266.618 52.6533 267.411 53.12C268.204 53.54 269.278 53.75 270.631 53.75C272.591 53.75 274.014 53.3533 274.901 52.56C275.788 51.7667 276.231 50.7633 276.231 49.55C276.231 48.3367 275.788 47.3333 274.901 46.54C274.014 45.7467 272.591 45.35 270.631 45.35H259.431V36.25L269.231 31V30.3H249.981V17H290.931V29.95L277.981 35.55L277.211 35.9V36.67L277.281 36.6C279.988 36.6 282.391 36.95 284.491 37.65C286.591 38.35 288.341 39.3533 289.741 40.66C291.188 41.92 292.261 43.4367 292.961 45.21C293.708 46.9367 294.081 48.85 294.081 50.95C294.081 53.2367 293.614 55.3833 292.681 57.39C291.748 59.35 290.324 61.0767 288.411 62.57C286.544 64.0633 284.141 65.23 281.201 66.07C278.308 66.9567 274.901 67.4 270.981 67.4ZM320.678 67.4C317.971 67.4 315.545 67.1433 313.398 66.63C311.298 66.1167 309.431 65.4633 307.798 64.67C306.165 63.83 304.765 62.8733 303.598 61.8C302.431 60.7267 301.451 59.63 300.658 58.51C298.791 55.8967 297.531 52.91 296.878 49.55H314.028C314.308 50.3433 314.705 51.0433 315.218 51.65C315.685 52.1633 316.315 52.6533 317.108 53.12C317.901 53.54 318.975 53.75 320.328 53.75C322.288 53.75 323.711 53.3533 324.598 52.56C325.485 51.7667 325.928 50.7633 325.928 49.55C325.928 48.3367 325.485 47.3333 324.598 46.54C323.711 45.7467 322.288 45.35 320.328 45.35H309.128V36.25L318.928 31V30.3H299.678V17H340.628V29.95L327.678 35.55L326.908 35.9V36.67L326.978 36.6C329.685 36.6 332.088 36.95 334.188 37.65C336.288 38.35 338.038 39.3533 339.438 40.66C340.885 41.92 341.958 43.4367 342.658 45.21C343.405 46.9367 343.778 48.85 343.778 50.95C343.778 53.2367 343.311 55.3833 342.378 57.39C341.445 59.35 340.021 61.0767 338.108 62.57C336.241 64.0633 333.838 65.23 330.898 66.07C328.005 66.9567 324.598 67.4 320.678 67.4ZM370.375 33.1V32.4H346.925V17H389.625V32.4L371.425 66H352.175L370.375 33.1ZM414.503 52L418.003 49.9V49.2C417.443 49.48 416.789 49.7133 416.043 49.9C415.389 50.0867 414.596 50.25 413.663 50.39C412.776 50.53 411.773 50.6 410.653 50.6C407.946 50.6 405.473 50.18 403.233 49.34C400.993 48.4533 399.079 47.2633 397.493 45.77C395.906 44.2767 394.669 42.5033 393.783 40.45C392.896 38.3967 392.453 36.2033 392.453 33.87C392.453 31.3967 392.966 29.0633 393.993 26.87C395.019 24.63 396.536 22.6933 398.543 21.06C400.596 19.38 403.093 18.05 406.033 17.07C408.973 16.09 412.379 15.6 416.253 15.6C420.079 15.6 423.463 16.09 426.403 17.07C429.389 18.05 431.886 19.4033 433.893 21.13C435.946 22.8567 437.486 24.91 438.513 27.29C439.539 29.6233 440.053 32.1433 440.053 34.85C440.053 36.1567 439.913 37.51 439.633 38.91C439.399 40.31 438.956 41.8033 438.303 43.39C437.649 44.93 436.786 46.5867 435.713 48.36C434.639 50.1333 433.286 52.0467 431.653 54.1L422.203 66H403.303L414.503 52ZM416.253 37.65C418.213 37.65 419.683 37.23 420.663 36.39C421.689 35.5033 422.203 34.5233 422.203 33.45C422.203 32.3767 421.689 31.42 420.663 30.58C419.683 29.6933 418.213 29.25 416.253 29.25C414.293 29.25 412.799 29.6933 411.773 30.58C410.793 31.42 410.303 32.3767 410.303 33.45C410.303 34.5233 410.793 35.5033 411.773 36.39C412.799 37.23 414.293 37.65 416.253 37.65Z" fill="white"/>
<path d="M4 0V78" stroke="#CC0BF9" stroke-opacity="0.96" stroke-width="8"/>
<path d="M23 0V78" stroke="#CC0BF9" stroke-opacity="0.96" stroke-width="8"/>
</svg>
