<svg width="401" height="102" viewBox="0 0 401 102" fill="none" xmlns="http://www.w3.org/2000/svg">
<path d="M73.25 67.4C70.4967 67.4 68.0233 67.1433 65.83 66.63C63.6367 66.1167 61.7 65.4633 60.02 64.67C58.34 63.83 56.87 62.8733 55.61 61.8C54.3967 60.7267 53.37 59.63 52.53 58.51C50.5233 55.8967 49.1467 52.91 48.4 49.55H65.9C66.18 50.53 66.6233 51.4167 67.23 52.21C67.7433 52.8633 68.4667 53.47 69.4 54.03C70.38 54.5433 71.6633 54.8 73.25 54.8C75.21 54.8 76.5633 54.52 77.31 53.96C78.1033 53.3533 78.5 52.7 78.5 52C78.5 51.2067 78.08 50.5533 77.24 50.04C76.4467 49.5267 75.3733 49.06 74.02 48.64C72.6667 48.22 71.1267 47.8 69.4 47.38C67.6733 46.96 65.9233 46.4933 64.15 45.98C62.3767 45.42 60.6267 44.7667 58.9 44.02C57.1733 43.2267 55.6333 42.2467 54.28 41.08C52.9267 39.9133 51.83 38.5133 50.99 36.88C50.1967 35.2467 49.8 33.2867 49.8 31C49.8 29.0867 50.2667 27.22 51.2 25.4C52.18 23.5333 53.6033 21.8767 55.47 20.43C57.3833 18.9833 59.7167 17.8167 62.47 16.93C65.27 16.0433 68.5133 15.6 72.2 15.6C74.72 15.6 76.9833 15.8333 78.99 16.3C81.0433 16.7667 82.84 17.3967 84.38 18.19C85.9667 18.9367 87.32 19.8233 88.44 20.85C89.6067 21.83 90.5867 22.8333 91.38 23.86C93.2467 26.2867 94.5533 29.0167 95.3 32.05H77.8C77.66 31.35 77.3567 30.72 76.89 30.16C76.5167 29.6467 75.98 29.2033 75.28 28.83C74.58 28.41 73.67 28.2 72.55 28.2C70.87 28.2 69.68 28.4567 68.98 28.97C68.3267 29.4367 68 29.9967 68 30.65C68 31.49 68.7 32.1433 70.1 32.61C71.5467 33.03 73.32 33.4733 75.42 33.94C77.5667 34.4067 79.8767 34.9667 82.35 35.62C84.8233 36.2733 87.11 37.2067 89.21 38.42C91.3567 39.6333 93.13 41.22 94.53 43.18C95.9767 45.0933 96.7 47.5667 96.7 50.6C96.7 52.7933 96.1867 54.9167 95.16 56.97C94.18 58.9767 92.71 60.75 90.75 62.29C88.79 63.83 86.34 65.0667 83.4 66C80.46 66.9333 77.0767 67.4 73.25 67.4ZM121.933 67.05C118.619 67.05 115.586 66.5367 112.833 65.51C110.126 64.4833 107.816 63.0833 105.903 61.31C103.989 59.5367 102.496 57.46 101.423 55.08C100.396 52.7 99.8828 50.1567 99.8828 47.45C99.8828 44.7433 100.396 42.2 101.423 39.82C102.496 37.44 103.989 35.3633 105.903 33.59C107.816 31.8167 110.126 30.4167 112.833 29.39C115.586 28.3633 118.619 27.85 121.933 27.85C125.246 27.85 128.256 28.3633 130.963 29.39C133.669 30.4167 135.979 31.8167 137.893 33.59C139.853 35.3633 141.346 37.44 142.373 39.82C143.446 42.2 143.983 44.7433 143.983 47.45C143.983 50.1567 143.446 52.7 142.373 55.08C141.346 57.46 139.853 59.5367 137.893 61.31C135.979 63.0833 133.669 64.4833 130.963 65.51C128.256 66.5367 125.246 67.05 121.933 67.05ZM121.933 54.45C123.519 54.45 124.849 53.8667 125.923 52.7C126.996 51.4867 127.533 49.7367 127.533 47.45C127.533 45.1633 126.996 43.4367 125.923 42.27C124.849 41.0567 123.519 40.45 121.933 40.45C120.346 40.45 119.016 41.0567 117.943 42.27C116.869 43.4367 116.333 45.1633 116.333 47.45C116.333 49.7367 116.869 51.4867 117.943 52.7C119.016 53.8667 120.346 54.45 121.933 54.45ZM148.861 17H164.961V55.15H173.361V66H148.861V17Z" fill="white"/>
<path d="M4 0V78" stroke="#CC0BF9" stroke-opacity="0.96" stroke-width="8"/>
<path d="M23 0V78" stroke="#CC0BF9" stroke-opacity="0.96" stroke-width="8"/>
</svg>
