<svg width="491" height="86" viewBox="0 0 491 86" fill="none" xmlns="http://www.w3.org/2000/svg">
<path d="M77.1 67.4C72.8067 67.4 68.9333 66.7233 65.48 65.37C62.0267 64.0167 59.0867 62.1733 56.66 59.84C54.2333 57.5067 52.3667 54.7767 51.06 51.65C49.7533 48.4767 49.1 45.0933 49.1 41.5C49.1 37.9067 49.7533 34.5467 51.06 31.42C52.3667 28.2467 54.2333 25.4933 56.66 23.16C59.0867 20.8267 62.0267 18.9833 65.48 17.63C68.9333 16.2767 72.8067 15.6 77.1 15.6C81.3933 15.6 85.2667 16.2767 88.72 17.63C92.1733 18.9833 95.1133 20.8267 97.54 23.16C99.9667 25.4933 101.833 28.2467 103.14 31.42C104.447 34.5467 105.1 37.9067 105.1 41.5C105.1 45.0933 104.447 48.4767 103.14 51.65C101.833 54.7767 99.9667 57.5067 97.54 59.84C95.1133 62.1733 92.1733 64.0167 88.72 65.37C85.2667 66.7233 81.3933 67.4 77.1 67.4ZM77.1 52.7C79.9 52.7 82.2333 51.72 84.1 49.76C85.9667 47.7533 86.9 45 86.9 41.5C86.9 38 85.9667 35.27 84.1 33.31C82.2333 31.3033 79.9 30.3 77.1 30.3C74.3 30.3 71.9667 31.3033 70.1 33.31C68.2333 35.27 67.3 38 67.3 41.5C67.3 45 68.2333 47.7533 70.1 49.76C71.9667 51.72 74.3 52.7 77.1 52.7ZM110.375 17H126.475V55.15H134.875V66H110.375V17ZM138.744 17H154.844V34.15H155.544C156.244 32.9833 157.13 31.9333 158.204 31C159.137 30.2067 160.257 29.4833 161.564 28.83C162.917 28.1767 164.527 27.85 166.394 27.85C170.454 27.85 173.674 29.1333 176.054 31.7C178.48 34.22 179.694 37.9533 179.694 42.9V66H163.594V45.7C163.594 44.2067 163.22 43.0867 162.474 42.34C161.774 41.5467 160.864 41.15 159.744 41.15C158.344 41.15 157.177 41.64 156.244 42.62C155.31 43.6 154.844 44.9767 154.844 46.75V66H138.744V17ZM206.288 67.05C202.975 67.05 199.942 66.5367 197.188 65.51C194.482 64.4833 192.172 63.0833 190.258 61.31C188.345 59.5367 186.852 57.46 185.778 55.08C184.752 52.7 184.238 50.1567 184.238 47.45C184.238 44.7433 184.752 42.2 185.778 39.82C186.852 37.44 188.345 35.3633 190.258 33.59C192.172 31.8167 194.482 30.4167 197.188 29.39C199.942 28.3633 202.975 27.85 206.288 27.85C209.602 27.85 212.612 28.3633 215.318 29.39C218.025 30.4167 220.335 31.8167 222.248 33.59C224.208 35.3633 225.702 37.44 226.728 39.82C227.802 42.2 228.338 44.7433 228.338 47.45C228.338 50.1567 227.802 52.7 226.728 55.08C225.702 57.46 224.208 59.5367 222.248 61.31C220.335 63.0833 218.025 64.4833 215.318 65.51C212.612 66.5367 209.602 67.05 206.288 67.05ZM206.288 54.45C207.875 54.45 209.205 53.8667 210.278 52.7C211.352 51.4867 211.888 49.7367 211.888 47.45C211.888 45.1633 211.352 43.4367 210.278 42.27C209.205 41.0567 207.875 40.45 206.288 40.45C204.702 40.45 203.372 41.0567 202.298 42.27C201.225 43.4367 200.688 45.1633 200.688 47.45C200.688 49.7367 201.225 51.4867 202.298 52.7C203.372 53.8667 204.702 54.45 206.288 54.45ZM253.886 17H273.486L286.856 40.1H287.486L286.436 33.1V17H303.936V66H284.336L271.036 42.9H270.336L271.386 49.55V66H253.886V17ZM331.233 67.05C328.059 67.05 325.166 66.5367 322.553 65.51C319.939 64.4833 317.699 63.0833 315.833 61.31C313.966 59.5367 312.496 57.46 311.423 55.08C310.396 52.7 309.883 50.1567 309.883 47.45C309.883 44.7433 310.396 42.2 311.423 39.82C312.496 37.44 313.966 35.3633 315.833 33.59C317.699 31.8167 319.939 30.4167 322.553 29.39C325.166 28.3633 328.059 27.85 331.233 27.85C334.359 27.85 337.229 28.3633 339.843 29.39C342.503 30.4167 344.766 31.8167 346.633 33.59C348.499 35.3633 349.946 37.44 350.973 39.82C352.046 42.2 352.583 44.7433 352.583 47.45V48.5H326.333C326.333 51.16 326.799 53.05 327.733 54.17C328.666 55.29 329.833 55.85 331.233 55.85C332.119 55.85 332.843 55.6867 333.403 55.36C333.963 55.0333 334.429 54.6833 334.803 54.31C335.223 53.8433 335.549 53.3067 335.783 52.7H352.233C351.393 55.4067 350.063 57.81 348.243 59.91C347.449 60.7967 346.516 61.6833 345.443 62.57C344.416 63.41 343.203 64.1567 341.803 64.81C340.449 65.4633 338.886 66 337.113 66.42C335.339 66.84 333.379 67.05 331.233 67.05ZM335.783 43.95C335.689 43.0633 335.456 42.2467 335.083 41.5C334.756 40.8933 334.289 40.3333 333.683 39.82C333.123 39.3067 332.306 39.05 331.233 39.05C330.159 39.05 329.319 39.3067 328.713 39.82C328.153 40.3333 327.709 40.8933 327.383 41.5C327.009 42.2467 326.776 43.0633 326.683 43.95H335.783ZM360.994 68.45H383.394V59H382.694C382.04 60.1667 381.2 61.17 380.174 62.01C379.287 62.7567 378.167 63.4333 376.814 64.04C375.46 64.6467 373.804 64.95 371.844 64.95C369.744 64.95 367.76 64.53 365.894 63.69C364.027 62.85 362.394 61.6367 360.994 60.05C359.594 58.4167 358.474 56.4567 357.634 54.17C356.84 51.8833 356.444 49.2933 356.444 46.4C356.444 43.5067 356.84 40.9167 357.634 38.63C358.474 36.3433 359.594 34.4067 360.994 32.82C362.394 31.1867 364.027 29.95 365.894 29.11C367.76 28.27 369.744 27.85 371.844 27.85C373.804 27.85 375.46 28.1767 376.814 28.83C378.167 29.4367 379.287 30.1133 380.174 30.86C381.2 31.7 382.04 32.68 382.694 33.8H383.394V28.9H399.494V79.3H360.994V68.45ZM378.214 52C379.754 52 380.99 51.51 381.924 50.53C382.904 49.55 383.394 48.1733 383.394 46.4C383.394 44.6267 382.904 43.25 381.924 42.27C380.99 41.29 379.754 40.8 378.214 40.8C376.58 40.8 375.274 41.29 374.294 42.27C373.36 43.25 372.894 44.6267 372.894 46.4C372.894 48.1733 373.36 49.55 374.294 50.53C375.274 51.51 376.58 52 378.214 52ZM405.824 28.9H421.224V34.5H421.924C422.344 33.3333 422.95 32.2833 423.744 31.35C424.397 30.5567 425.26 29.8333 426.334 29.18C427.407 28.5267 428.737 28.2 430.324 28.2H433.474V43.6H426.754C425.027 43.6 423.79 43.9733 423.044 44.72C422.297 45.42 421.924 46.5633 421.924 48.15V66H405.824V28.9ZM457.988 67.05C454.674 67.05 451.641 66.5367 448.888 65.51C446.181 64.4833 443.871 63.0833 441.958 61.31C440.044 59.5367 438.551 57.46 437.478 55.08C436.451 52.7 435.938 50.1567 435.938 47.45C435.938 44.7433 436.451 42.2 437.478 39.82C438.551 37.44 440.044 35.3633 441.958 33.59C443.871 31.8167 446.181 30.4167 448.888 29.39C451.641 28.3633 454.674 27.85 457.988 27.85C461.301 27.85 464.311 28.3633 467.018 29.39C469.724 30.4167 472.034 31.8167 473.948 33.59C475.908 35.3633 477.401 37.44 478.428 39.82C479.501 42.2 480.038 44.7433 480.038 47.45C480.038 50.1567 479.501 52.7 478.428 55.08C477.401 57.46 475.908 59.5367 473.948 61.31C472.034 63.0833 469.724 64.4833 467.018 65.51C464.311 66.5367 461.301 67.05 457.988 67.05ZM457.988 54.45C459.574 54.45 460.904 53.8667 461.978 52.7C463.051 51.4867 463.588 49.7367 463.588 47.45C463.588 45.1633 463.051 43.4367 461.978 42.27C460.904 41.0567 459.574 40.45 457.988 40.45C456.401 40.45 455.071 41.0567 453.998 42.27C452.924 43.4367 452.388 45.1633 452.388 47.45C452.388 49.7367 452.924 51.4867 453.998 52.7C455.071 53.8667 456.401 54.45 457.988 54.45Z" fill="white"/>
<path d="M4 0V78" stroke="#CC0BF9" stroke-opacity="0.96" stroke-width="8"/>
<path d="M23 0V78" stroke="#CC0BF9" stroke-opacity="0.96" stroke-width="8"/>
</svg>
