<svg width="337" height="91" viewBox="0 0 337 91" fill="none" xmlns="http://www.w3.org/2000/svg">
<path d="M0 11.375H321.523V91H0V44.2812V11.375Z" fill="#BF1EDA"/>
<rect x="15" width="322" height="75" fill="#F6EFEF"/>
<path d="M51.16 51H43.36L34.06 24.6H41.92L47.26 42.04L52.62 24.6H60.46L51.16 51ZM63.1744 24.6H80.5144V30.66H70.1344V34.84H80.4744V40.7H70.1344V44.94H80.5144V51H63.1744V24.6ZM84.5378 24.6H95.8978C97.4711 24.6 98.8645 24.9333 100.078 25.6C101.291 26.2533 102.244 27.1933 102.938 28.42C103.644 29.6467 103.998 31.1067 103.998 32.8C103.998 34.48 103.711 35.8467 103.138 36.9C102.564 37.9533 101.878 38.74 101.078 39.26C100.278 39.78 99.5445 40.1067 98.8778 40.24L105.238 51H97.4178L91.8578 40.78H91.5178V51H84.5378V24.6ZM91.5178 36.02H93.3978C94.2645 36.02 95.0511 35.8133 95.7578 35.4C96.4778 34.9867 96.8378 34.1933 96.8378 33.02C96.8378 31.86 96.4845 31.0733 95.7778 30.66C95.0845 30.2467 94.3111 30.04 93.4578 30.04H91.5178V36.02ZM119.776 24.6H130.176C131.883 24.6 133.423 24.9067 134.796 25.52C136.183 26.1333 137.283 27.0533 138.096 28.28C138.909 29.5067 139.316 31.0267 139.316 32.84C139.316 34.64 138.909 36.18 138.096 37.46C137.283 38.74 136.183 39.72 134.796 40.4C133.423 41.08 131.883 41.42 130.176 41.42H126.736V51H119.776V24.6ZM126.736 35.98H128.236C128.929 35.98 129.543 35.88 130.076 35.68C130.623 35.48 131.056 35.1667 131.376 34.74C131.696 34.3 131.856 33.72 131.856 33C131.856 32.2933 131.696 31.7267 131.376 31.3C131.056 30.86 130.623 30.54 130.076 30.34C129.543 30.14 128.929 30.04 128.236 30.04H126.736V35.98ZM142.672 24.6H149.632V44.94H158.912V51H142.672V24.6ZM171.349 24.6H178.189L188.869 51H181.449L179.649 46.1H169.909L168.109 51H160.649L171.349 24.6ZM172.229 40.04H177.329L174.809 32.96H174.749L172.229 40.04ZM197.114 30.94L197.634 31.04V51H190.674V24.6H200.114L209.654 44.52L209.154 44.62V24.6H216.094V51H206.614L197.114 30.94ZM220.284 24.6H237.624V30.66H227.244V34.84H237.584V40.7H227.244V44.94H237.624V51H220.284V24.6ZM246.527 30.66H240.567V24.6H259.447V30.66H253.487V51H246.527V30.66ZM268.381 24.6H275.221L285.901 51H278.481L276.681 46.1H266.941L265.141 51H257.681L268.381 24.6ZM269.261 40.04H274.361L271.841 32.96H271.781L269.261 40.04ZM297.886 24.12C299.552 24.12 301.026 24.3067 302.306 24.68C303.599 25.04 304.639 25.4267 305.426 25.84C306.212 26.24 306.692 26.5067 306.866 26.64L303.546 32.24C303.332 32.0667 302.966 31.8333 302.446 31.54C301.926 31.2467 301.326 30.9867 300.646 30.76C299.979 30.52 299.312 30.4 298.646 30.4C297.792 30.4 297.092 30.54 296.546 30.82C296.012 31.0867 295.746 31.5067 295.746 32.08C295.746 32.48 295.892 32.84 296.186 33.16C296.479 33.48 296.946 33.8 297.586 34.12C298.239 34.44 299.099 34.7867 300.166 35.16C301.166 35.5067 302.092 35.9267 302.946 36.42C303.812 36.9133 304.566 37.5 305.206 38.18C305.846 38.86 306.346 39.64 306.706 40.52C307.079 41.4 307.266 42.3933 307.266 43.5C307.266 44.9133 306.972 46.1267 306.386 47.14C305.812 48.14 305.032 48.96 304.046 49.6C303.072 50.24 301.972 50.7133 300.746 51.02C299.519 51.3267 298.266 51.48 296.986 51.48C295.092 51.48 293.399 51.2733 291.906 50.86C290.426 50.4333 289.226 49.9733 288.306 49.48C287.399 48.9867 286.852 48.6467 286.666 48.46L290.086 42.64C290.232 42.76 290.546 42.9533 291.026 43.22C291.506 43.4867 292.079 43.7667 292.746 44.06C293.426 44.3533 294.139 44.6 294.886 44.8C295.632 45 296.339 45.1 297.006 45.1C298.019 45.1 298.772 44.9333 299.266 44.6C299.759 44.2533 300.006 43.78 300.006 43.18C300.006 42.74 299.852 42.3467 299.546 42C299.239 41.64 298.739 41.2867 298.046 40.94C297.352 40.58 296.426 40.18 295.266 39.74C294.119 39.3 293.039 38.7533 292.026 38.1C291.026 37.4333 290.206 36.58 289.566 35.54C288.939 34.5 288.626 33.2067 288.626 31.66C288.626 30.1 289.059 28.76 289.926 27.64C290.806 26.5067 291.952 25.64 293.366 25.04C294.779 24.4267 296.286 24.12 297.886 24.12Z" fill="black"/>
</svg>
