<svg width="337" height="91" viewBox="0 0 337 91" fill="none" xmlns="http://www.w3.org/2000/svg">
<path d="M0 11.375H321.523V91H0V44.2812V11.375Z" fill="#BF1EDA"/>
<rect x="15" width="322" height="75" fill="#F6EFEF"/>
<path d="M51.16 51H43.36L34.06 24.6H41.92L47.26 42.04L52.62 24.6H60.46L51.16 51ZM63.1744 24.6H80.5144V30.66H70.1344V34.84H80.4744V40.7H70.1344V44.94H80.5144V51H63.1744V24.6ZM84.5378 24.6H95.8978C97.4711 24.6 98.8645 24.9333 100.078 25.6C101.291 26.2533 102.244 27.1933 102.938 28.42C103.644 29.6467 103.998 31.1067 103.998 32.8C103.998 34.48 103.711 35.8467 103.138 36.9C102.564 37.9533 101.878 38.74 101.078 39.26C100.278 39.78 99.5445 40.1067 98.8778 40.24L105.238 51H97.4178L91.8578 40.78H91.5178V51H84.5378V24.6ZM91.5178 36.02H93.3978C94.2645 36.02 95.0511 35.8133 95.7578 35.4C96.4778 34.9867 96.8378 34.1933 96.8378 33.02C96.8378 31.86 96.4845 31.0733 95.7778 30.66C95.0845 30.2467 94.3111 30.04 93.4578 30.04H91.5178V36.02ZM132.716 36.08H146.216V37.84C146.216 39.76 145.903 41.5467 145.276 43.2C144.649 44.84 143.743 46.2867 142.556 47.54C141.383 48.78 139.976 49.7467 138.336 50.44C136.696 51.1333 134.869 51.48 132.856 51.48C130.763 51.48 128.876 51.1333 127.196 50.44C125.516 49.7333 124.069 48.76 122.856 47.52C121.656 46.2667 120.729 44.8133 120.076 43.16C119.436 41.4933 119.116 39.7 119.116 37.78C119.116 35.8733 119.436 34.0933 120.076 32.44C120.729 30.7733 121.656 29.32 122.856 28.08C124.069 26.8267 125.516 25.8533 127.196 25.16C128.876 24.4667 130.763 24.12 132.856 24.12C134.656 24.12 136.229 24.32 137.576 24.72C138.923 25.1067 140.063 25.6133 140.996 26.24C141.943 26.8667 142.729 27.5533 143.356 28.3C143.983 29.0333 144.489 29.7333 144.876 30.4L138.216 33.46C137.776 32.7267 137.143 32.0667 136.316 31.48C135.489 30.8933 134.336 30.6 132.856 30.6C131.883 30.6 130.996 30.7933 130.196 31.18C129.409 31.5533 128.729 32.0733 128.156 32.74C127.583 33.3933 127.143 34.1533 126.836 35.02C126.529 35.8867 126.376 36.8067 126.376 37.78C126.376 38.7667 126.529 39.6933 126.836 40.56C127.143 41.4267 127.583 42.1933 128.156 42.86C128.729 43.5133 129.409 44.0267 130.196 44.4C130.996 44.7733 131.883 44.96 132.856 44.96C133.656 44.96 134.383 44.88 135.036 44.72C135.689 44.56 136.249 44.32 136.716 44C137.183 43.68 137.556 43.3 137.836 42.86C138.116 42.4067 138.289 41.9 138.356 41.34H132.716V36.08ZM157.053 24.6H163.893L174.573 51H167.153L165.353 46.1H155.613L153.813 51H146.352L157.053 24.6ZM157.933 40.04H163.033L160.513 32.96H160.453L157.933 40.04ZM176.618 24.6H183.578V44.94H192.858V51H176.618V24.6ZM205.295 24.6H212.135L222.815 51H215.395L213.595 46.1H203.855L202.055 51H194.595L205.295 24.6ZM206.175 40.04H211.275L208.755 32.96H208.695L206.175 40.04ZM206.975 23.48L204.955 20.72L211.635 14.88L214.875 18.98L206.975 23.48ZM241.64 36.8L251.64 51H242.54L237.02 42.62L231.74 51H223.34L232.7 36.8L224.2 24.6H233.06L237.3 31.44L241.5 24.6H249.96L241.64 36.8ZM254.39 24.6H261.35V51H254.39V24.6ZM274.357 24.6H281.197L291.877 51H284.457L282.657 46.1H272.917L271.117 51H263.657L274.357 24.6ZM275.237 40.04H280.337L277.817 32.96H277.757L275.237 40.04ZM303.862 24.12C305.529 24.12 307.002 24.3067 308.282 24.68C309.576 25.04 310.616 25.4267 311.402 25.84C312.189 26.24 312.669 26.5067 312.842 26.64L309.522 32.24C309.309 32.0667 308.942 31.8333 308.422 31.54C307.902 31.2467 307.302 30.9867 306.622 30.76C305.956 30.52 305.289 30.4 304.622 30.4C303.769 30.4 303.069 30.54 302.522 30.82C301.989 31.0867 301.722 31.5067 301.722 32.08C301.722 32.48 301.869 32.84 302.162 33.16C302.456 33.48 302.922 33.8 303.562 34.12C304.216 34.44 305.076 34.7867 306.142 35.16C307.142 35.5067 308.069 35.9267 308.922 36.42C309.789 36.9133 310.542 37.5 311.182 38.18C311.822 38.86 312.322 39.64 312.682 40.52C313.056 41.4 313.242 42.3933 313.242 43.5C313.242 44.9133 312.949 46.1267 312.362 47.14C311.789 48.14 311.009 48.96 310.022 49.6C309.049 50.24 307.949 50.7133 306.722 51.02C305.496 51.3267 304.242 51.48 302.962 51.48C301.069 51.48 299.376 51.2733 297.882 50.86C296.402 50.4333 295.202 49.9733 294.282 49.48C293.376 48.9867 292.829 48.6467 292.642 48.46L296.062 42.64C296.209 42.76 296.522 42.9533 297.002 43.22C297.482 43.4867 298.056 43.7667 298.722 44.06C299.402 44.3533 300.116 44.6 300.862 44.8C301.609 45 302.316 45.1 302.982 45.1C303.996 45.1 304.749 44.9333 305.242 44.6C305.736 44.2533 305.982 43.78 305.982 43.18C305.982 42.74 305.829 42.3467 305.522 42C305.216 41.64 304.716 41.2867 304.022 40.94C303.329 40.58 302.402 40.18 301.242 39.74C300.096 39.3 299.016 38.7533 298.002 38.1C297.002 37.4333 296.182 36.58 295.542 35.54C294.916 34.5 294.602 33.2067 294.602 31.66C294.602 30.1 295.036 28.76 295.902 27.64C296.782 26.5067 297.929 25.64 299.342 25.04C300.756 24.4267 302.262 24.12 303.862 24.12Z" fill="black"/>
</svg>
